<svg width="172" height="106" fill="none" xmlns="http://www.w3.org/2000/svg"><path fill-rule="evenodd" clip-rule="evenodd" d="M24.486 85.19c-.148.06-.27.34-.27.623 0 .603.323.711 2.366.792l1.397.055.108 3.117.107 3.118.556.065c.306.035.666-.068.8-.23.148-.178.268-1.433.304-3.182l.06-2.888 1.59-.108c1.74-.117 2.312-.497 1.758-1.164-.24-.29-.891-.338-4.395-.324-2.262.01-4.233.066-4.381.126Zm10.524.115c-.272.272-.383 6.69-.127 7.357.153.401.963.45 1.331.082.142-.142.258-.8.258-1.462 0-.662.116-1.32.258-1.462.17-.17 1.075-.258 2.645-.258s2.475.089 2.644.258c.142.142.258.808.258 1.48 0 1.342.295 1.782 1.117 1.665l.496-.07v-7.74l-.556-.065c-.763-.089-1.02.305-1.098 1.684l-.066 1.176h-5.59l-.067-1.176c-.036-.647-.17-1.3-.295-1.452-.287-.346-.87-.354-1.208-.017Zm11.729-.026c-.333.195-.377.608-.377 3.608 0 2.377.08 3.498.27 3.757.24.329.697.362 4.247.31l3.976-.06.073-.512c.04-.283-.057-.596-.215-.696-.158-.1-1.665-.184-3.348-.186-3.051-.003-3.06-.004-3.19-.52-.07-.285-.02-.72.112-.968.217-.405.432-.45 2.16-.45 1.677 0 1.949-.052 2.143-.415.423-.79-.229-1.09-2.369-1.09-1.852 0-1.92-.017-2.047-.525-.072-.289-.069-.628.008-.753.088-.14 1.227-.227 3.013-.227 1.58 0 3.026-.059 3.213-.13.187-.072.34-.352.34-.622s-.153-.55-.34-.622c-.577-.222-7.267-.133-7.67.101Zm16.742 1.074c-.428.718-.778 1.353-.778 1.412 0 .06-.585 1.167-1.3 2.461-.716 1.294-1.242 2.449-1.17 2.565.285.462 1.092.18 1.85-.649l.785-.86h2.283c1.907 0 2.335.062 2.605.377.992 1.157 1.23 1.343 1.72 1.343.784 0 .792-.675.02-1.911-.267-.427-1.038-1.84-1.714-3.141-.676-1.301-1.388-2.486-1.583-2.634-.194-.148-.71-.269-1.147-.269-.743 0-.844.084-1.571 1.306Zm8.725-1.048c-.361.362-.361 7.078 0 7.44.369.368 1.178.318 1.332-.083.072-.187.13-1.39.13-2.675 0-1.284.088-2.389.196-2.455.21-.13.628.347 2.232 2.55.567.779 1.172 1.415 1.345 1.415.173 0 .774-.644 1.335-1.433 1.48-2.079 2.01-2.68 2.283-2.59.154.051.281 1.05.35 2.75l.107 2.67h1.505v-7.74l-.728-.069c-1.275-.122-1.63.114-3.018 2-.768 1.042-1.505 1.832-1.712 1.832-.205 0-.867-.706-1.53-1.633-.642-.898-1.362-1.769-1.6-1.935-.527-.37-1.875-.396-2.227-.044Zm13.765-.005c-.365.366-.37 7.079-.004 7.444.182.182 1.415.258 4.178.258 3.762 0 3.925-.017 4.06-.44.287-.906-.165-1.05-3.52-1.113l-3.149-.06-.069-.603c-.116-1.01.255-1.224 2.12-1.224 2.024 0 2.357-.108 2.357-.771 0-.617-.326-.713-2.688-.787l-1.72-.054v-1.29l3.054-.108c3.228-.113 3.829-.297 3.368-1.027-.203-.324-.707-.378-3.978-.429-2.732-.043-3.817.013-4.009.204Zm10.327-.008c-.372.375-.381 7.082-.011 7.452.368.369 1.178.319 1.332-.082.071-.187.13-.748.13-1.247 0-.499.116-1.023.258-1.165.345-.345 3.002-.337 3.434.011.183.148.641.727 1.016 1.287.754 1.122 1.222 1.454 2.051 1.454.743 0 .712-.487-.094-1.505-.819-1.034-.81-1.42.054-2.313.575-.593.699-.89.699-1.672 0-.788-.121-1.073-.703-1.654l-.702-.703-3.598-.067c-2.68-.05-3.666.003-3.866.204Zm10.926.158c-.133.249-.23 1.772-.23 3.627 0 3.495.148 4.025 1.087 3.892l.526-.074v-7.74l-.577-.067c-.401-.046-.646.064-.806.362Zm7.079-.216c-1.41.466-2.629 1.434-3.197 2.54-.133.259-.242.904-.242 1.435 0 .758.15 1.16.699 1.876 1.097 1.431 2.036 1.81 4.462 1.804 1.806-.006 2.174-.075 3.185-.602.918-.479 1.129-.688 1.075-1.069-.092-.644-.8-.708-1.817-.163-.591.317-1.222.442-2.229.442-1.709 0-2.729-.477-3.32-1.553-.363-.66-.385-.872-.165-1.604.51-1.704 3.133-2.331 5.553-1.328.731.302 1.305.41 1.685.314.875-.22.605-.79-.705-1.494-.901-.483-1.489-.63-2.793-.694-.908-.045-1.894-.002-2.191.096Zm11.658.404c-.227.326-.801 1.317-1.275 2.204a691.56 691.56 0 0 1-1.644 3.055c-.43.793-.782 1.591-.782 1.774 0 .502 1.015.41 1.453-.13 1.034-1.279.979-1.259 3.459-1.259 1.985 0 2.384.059 2.687.394.196.216.356.503.356.637 0 .583 1.637.942 1.843.404.109-.285-3.112-6.58-3.733-7.294-.203-.234-.633-.376-1.139-.376-.642 0-.898.124-1.225.591Zm8.167-.333c-.179.18-.258 1.318-.258 3.736 0 3.743.093 4.07 1.117 3.924.481-.068.499-.152.603-2.758.083-2.06.175-2.687.398-2.687.16 0 1.226 1.21 2.371 2.687l2.08 2.688 1.224.064c1.528.08 1.488.204 1.406-4.364l-.061-3.44-.564-.066c-.327-.038-.724.095-.944.314-.331.331-.363.66-.255 2.576.091 1.6.053 2.256-.139 2.415-.366.304-.485.19-2.281-2.186-2.338-3.093-2.413-3.16-3.504-3.16-.514 0-1.051.115-1.193.257Zm-31.047 1.505c.142.142.258.51.258.817 0 .94-.342 1.075-2.713 1.075-1.208 0-2.35-.058-2.537-.13-.344-.133-.496-1.577-.197-1.876.264-.265 4.913-.162 5.189.114Zm-37.546.528c.216.196.393.474.393.619 0 .144.15.387.334.54.185.153.304.523.268.832-.06.515-.153.56-1.266.62-1.662.087-1.829-.172-1.12-1.738.595-1.316.776-1.43 1.39-.873Zm62.575.909c.343.636.574 1.289.511 1.45-.078.205-.511.295-1.416.295-1.633 0-1.778-.271-.995-1.867.714-1.456 1.06-1.433 1.9.122Zm36.103 9.27c-.961.228-2.376 1.24-2.975 2.129-.766 1.137-.834 2.008-.247 3.191.967 1.949 3.254 2.909 6.055 2.541 2.294-.301 4.235-2.101 4.235-3.926 0-2.893-3.419-4.796-7.068-3.934ZM.494 97.662c-.078.079-.143 1.412-.143 2.962 0 3.123.091 3.397 1.396 4.203.948.587 3.389.8 5.091.447 1.011-.21 1.37-.417 2.097-1.205l.876-.951v-2.558c0-2.758-.143-3.142-1.117-3.004-.48.068-.497.147-.548 2.435-.03 1.301-.103 2.581-.165 2.845-.189.816-1.239 1.185-3.129 1.099-1.413-.064-1.759-.156-2.227-.596-.53-.499-.554-.62-.554-2.912 0-1.574-.088-2.48-.258-2.65-.278-.279-1.085-.349-1.319-.115Zm11.778.133c-.059.153-.08 1.86-.047 3.794.051 3.075.106 3.546.435 3.753.274.173.479.173.753 0 .313-.196.394-.666.483-2.793.06-1.407.18-2.534.27-2.504.088.03.25.054.358.054.108 0 .917.895 1.797 1.988 2.62 3.255 2.77 3.387 3.843 3.384.514-.002 1.05-.077 1.191-.167.33-.21.443-7.28.12-7.602-.118-.12-.494-.185-.833-.146l-.618.07-.107 2.778c-.071 1.828-.193 2.806-.357 2.86-.137.045-.524-.298-.86-.763-.754-1.044-2.834-3.594-3.583-4.391-.464-.495-.734-.591-1.647-.591-.693 0-1.131.1-1.198.276Zm12.47 0c-.058.152-.08 1.918-.047 3.924.059 3.624.062 3.648.555 3.718 1.024.145 1.117-.182 1.117-3.924 0-2.419-.079-3.557-.258-3.737-.342-.342-1.233-.33-1.367.02Zm2.915.068c0 .189.554 1.326 1.232 2.526.678 1.2 1.479 2.642 1.78 3.203.824 1.538 1.19 1.882 2.001 1.882.732 0 1.223-.399 1.841-1.493 2.377-4.21 3.251-5.86 3.251-6.133 0-.403-.852-.442-1.327-.06-.185.147-.723.994-1.197 1.88-1.482 2.774-2.117 3.761-2.462 3.827-.222.043-.57-.391-1.036-1.29a97.428 97.428 0 0 0-1.658-3.02c-.9-1.566-1.002-1.666-1.692-1.666-.529 0-.733.095-.733.344Zm12.298-.087c-.179.18-.258 1.314-.258 3.72s.079 3.54.258 3.72c.182.181 1.41.258 4.15.258 4.002 0 4.408-.081 4.408-.88 0-.552-.428-.625-3.63-.625-3.095 0-3.466-.104-3.466-.968 0-.8.416-.967 2.4-.967 1.685 0 1.91-.048 2.123-.444.437-.816-.063-1.061-2.158-1.061-1.973 0-2.479-.217-2.328-.998.11-.573 1.333-.782 3.897-.664 1.848.084 2.385.042 2.634-.206.232-.233.255-.418.09-.727-.207-.387-.489-.416-4.042-.416-2.684 0-3.897.077-4.078.258Zm11.016-.02c-.197.32-.206 7.146-.01 7.465.087.139.396.253.687.253.628 0 .943-.645.795-1.632-.16-1.069.336-1.378 2.206-1.378h1.59l.92 1.236c1.16 1.556 1.438 1.784 2.102 1.719.775-.076.782-.679.018-1.607-.804-.974-.813-1.132-.103-1.795 1.398-1.305 1.464-2.71.18-3.837l-.753-.662H54.86c-2.496 0-3.79.08-3.889.238Zm12.605.23c-1.841.963-2.198 2.244-.886 3.179.499.355 1.144.489 3.064.637 2.93.226 3.614.449 3.614 1.177 0 .414-.166.581-.78.784-1.09.359-4.174.175-4.887-.292-.689-.451-1.087-.458-1.52-.025-.495.495-.415.8.318 1.217 1.595.908 5.68 1.028 7.265.214.441-.227.976-.75 1.217-1.193.392-.72.402-.839.107-1.36-.668-1.183-1.639-1.502-5.84-1.917-1.317-.13-1.75-.552-1.165-1.136.425-.425 2.84-.454 4.471-.054.998.245 1.291.25 1.56.028 1.046-.869-.322-1.557-3.326-1.672-2.04-.078-2.35-.038-3.212.413Zm9.376-.324c-.18.179-.191 7.008-.013 7.472.154.4.963.45 1.331.082.18-.18.258-1.343.258-3.847 0-3.075-.049-3.608-.34-3.72-.449-.172-1.058-.166-1.236.013Zm3.124.114c-.703.704.103 1.306 1.499 1.12.512-.069 1.197-.022 1.522.104l.592.228v2.783c0 1.53.058 2.936.13 3.123.154.4.963.45 1.332.082.174-.175.258-1.182.258-3.123v-2.865l.59-.228c.329-.126 1.056-.167 1.635-.092.767.1 1.18.047 1.557-.2.649-.425.792-.332 2.829 1.846l1.559 1.666v1.369c0 1.469.221 1.885 1.003 1.885.666 0 .932-.6.932-2.106v-1.273l2.05-2.083c1.126-1.146 1.991-2.175 1.922-2.288-.07-.113-.432-.206-.805-.206-.562 0-.944.277-2.234 1.613-.856.887-1.65 1.613-1.767 1.613-.116 0-.922-.726-1.792-1.613l-1.581-1.612H81.82c-3.98 0-5.556.07-5.744.257Zm25.267-.124c-.085.084-.154 1.833-.154 3.887 0 4.047.028 4.136 1.188 3.845l.542-.136-.059-3.811-.058-3.811-.653-.064c-.359-.035-.722.005-.806.09Zm4.844.115c-.281.281-.4 6.682-.137 7.367.154.401 1.173.455 1.546.082.171-.171.258-1.085.258-2.688 0-1.879.065-2.429.286-2.429.158 0 1.142 1.088 2.187 2.418 1.046 1.331 2.048 2.54 2.228 2.688.416.343 2.013.35 2.352.011.18-.18.258-1.347.258-3.866v-3.608l-.537-.135c-1.112-.279-1.183-.11-1.183 2.807 0 3.168-.153 3.329-1.484 1.566-3.297-4.37-3.275-4.349-4.437-4.417-.646-.038-1.176.043-1.337.204Zm19.297-.06c-2.852.932-4.122 3.22-3.005 5.41 1.182 2.317 5.523 3.089 8.336 1.483 1.181-.675 1.391-1.116.706-1.483-.464-.248-1.001-.113-1.597.401-.299.257-.865.343-2.258.343-1.547 0-1.987-.08-2.628-.478-1.778-1.106-1.634-3.072.298-4.07.994-.515 3.288-.452 4.354.12.872.467 1.324.543 1.905.32.675-.259.352-.87-.789-1.491-.95-.518-1.417-.624-2.956-.673-1.005-.032-2.07.021-2.366.118Zm12.007.08c-.309.25-.608.764-2.6 4.462-.414.768-.934 1.707-1.154 2.087-.307.526-.342.749-.15.941.415.415 1.213.034 1.84-.88l.589-.858h2.326c2.503 0 2.657.055 3.465 1.236.352.515.64.699 1.095.699.34 0 .681-.101.757-.225.076-.124-.368-1.115-.987-2.204a183.423 183.423 0 0 1-1.872-3.376c-.411-.77-.895-1.567-1.077-1.774-.387-.443-1.738-.508-2.232-.108Zm7.928-.135c-.186.186-.207 7.002-.023 7.482.139.361.87.449 1.326.159.209-.132.26-1.067.215-3.92l-.059-3.747-.653-.064c-.359-.035-.721.005-.806.09Zm4.19.124c-.272.272-.384 6.691-.128 7.358.189.493 1.306.439 1.582-.076.123-.229.223-.847.223-1.375 0-1.14.135-1.219 2.07-1.219 1.527 0 1.53.002 3.154 2.003.639.787.956 1.007 1.452 1.007.842 0 .838-.544-.011-1.613-.781-.983-.795-1.182-.12-1.816.776-.729 1.249-1.856 1.087-2.593-.075-.344-.473-.92-.882-1.28l-.745-.654h-3.712c-2.601 0-3.79.078-3.97.258Zm-91.554 1.442c.489.405.447 1.457-.068 1.733-.443.237-4.099.303-4.898.089-.908-.244-.914-1.895-.007-2.091 1.007-.218 4.622-.023 4.973.269Zm98.737.124c.425.582.37 1.349-.117 1.609-.229.122-1.431.223-2.672.223-2.755 0-3.177-.25-2.8-1.655.162-.602.578-.685 3.17-.63 1.804.038 2.165.105 2.419.453Zm10.895-.239c1.148.49 1.767 1.325 1.767 2.388 0 1.582-1.236 2.478-3.419 2.478-1.439 0-1.981-.195-2.876-1.031-.578-.539-.693-.804-.693-1.595 0-1.562 1.256-2.495 3.393-2.52.625-.008 1.447.118 1.828.28Zm-28.357 1.207c.308.589.56 1.216.56 1.393 0 .396-.734.598-1.846.507-1.051-.086-1.181-.544-.503-1.767.467-.842.787-1.194 1.091-1.201.076-.002.39.479.698 1.068Z" fill="#131D3B"/><path fill-rule="evenodd" clip-rule="evenodd" d="M81.677.496c-10.199.03-18.544.087-18.544.127 0 .04.87.98 1.935 2.087l1.935 2.014v1.89c0 1.517.062 1.89.315 1.89.174 0 .633.14 1.022.31.977.43 3.547 1.41 3.699 1.41.068 0 .124-.808.124-1.795 0-1.465.072-1.86.394-2.15.355-.322 1.486-.356 11.782-.356 8.571 0 11.453.064 11.647.258.19.19.258 2.102.258 7.265v7.007l1.236 1.43c.68.788 1.624 1.931 2.097 2.542l.86 1.11.055-12.427c.031-6.835-.018-12.481-.107-12.547-.09-.066-8.508-.096-18.708-.065Zm27.04 6.78c-.521.97-1.151 2.146-1.4 2.613-.374.701-.664.924-1.677 1.289l-1.226.44v5.754l.699-.172c.385-.094 1.181-.179 1.769-.188l1.071-.016.329 1.435c.181.79.4 1.507.488 1.595.088.088.159.474.159.859 0 .384.139.973.308 1.308.381.754.983 2.78.983 3.308 0 .216.096.452.215.525.118.073.214.345.213.604-.001.479.543 2.315.888 2.995.103.205.188.544.187.752 0 .209.138.815.308 1.347.169.532.48 1.548.69 2.258.21.71.459 1.382.553 1.494.267.32.2 1.547-.098 1.79-.148.122-.849.42-1.559.665-.709.244-2.258.793-3.44 1.22-1.183.428-2.489.875-2.903.995-.414.12-.844.306-.956.413-.113.108-.456.195-.764.195-.307 0-.666.107-.797.238s-.556.304-.946.383c-.558.114-.904.431-1.632 1.496-.509.743-.925 1.4-.925 1.46 0 .061-.481.75-1.07 1.532-.589.782-1.039 1.455-.999 1.494.04.04.594-.119 1.232-.352.638-.233 2.321-.777 3.74-1.208 3.861-1.174 4.688-1.431 5.16-1.602a39.61 39.61 0 0 1 1.72-.523c.71-.202 1.871-.566 2.58-.808.71-.242 1.629-.516 2.043-.608.414-.092 1.381-.374 2.15-.627a83.11 83.11 0 0 1 4.246-1.289c.503-.136.914-.302.914-.367 0-.066-.195-.393-.432-.726a3.862 3.862 0 0 1-.555-1.324c-.068-.394-.204-.91-.302-1.146a27.3 27.3 0 0 1-.55-1.613 33.133 33.133 0 0 0-.54-1.612c-.094-.237-.23-.793-.303-1.237-.073-.443-.214-.806-.314-.806s-.229-.314-.286-.699c-.094-.63-.336-1.404-.823-2.634-.094-.236-.235-.768-.315-1.182-.08-.414-.213-.85-.296-.968-.083-.118-.326-.795-.539-1.505-.214-.71-.474-1.458-.577-1.663a2.021 2.021 0 0 1-.188-.766c0-.215-.242-1.009-.538-1.763-.295-.755-.537-1.508-.537-1.675 0-.167-.137-.608-.303-.98-.167-.373-.564-1.549-.882-2.613a140.537 140.537 0 0 0-1.197-3.763 94.457 94.457 0 0 1-1.157-3.74c-.297-1.053-.569-1.944-.606-1.98-.036-.037-.492.727-1.013 1.698ZM56.16 9.409c-.228.744-1.22 3.811-2.204 6.817-.984 3.006-1.788 5.555-1.788 5.665 0 .11-.137.505-.303.878a7.03 7.03 0 0 0-.409 1.215c-.058.295-.309 1.068-.557 1.717-.248.648-.452 1.326-.453 1.505 0 .179-.146.603-.322.941-.177.339-.321.774-.322.968 0 .402-.69 2.297-.921 2.528-.084.084-.153.375-.153.647s-.134.812-.298 1.2c-.498 1.183-1.241 3.463-1.35 4.147a6.22 6.22 0 0 1-.393 1.29 18.382 18.382 0 0 0-.616 1.72c-.466 1.536-.81 2.52-1.042 2.977-.265.524-.15.605.408.29.252-.141 1.215-.688 2.14-1.215 1.725-.98 2.764-1.172 3.685-.679.22.118.957.237 1.636.264 1.134.046 1.279-.002 1.75-.578.283-.346.518-.717.522-.824.004-.107.25-.512.545-.9.296-.387.538-.795.538-.907 0-.112.145-.324.322-.47.47-.391.399-.582-.268-.713-2.855-.561-3.17-.68-3.246-1.211-.097-.69.571-2.878 1.267-4.148a2.03 2.03 0 0 0 .205-.827c0-.249.133-.71.295-1.024.163-.314.467-1.103.675-1.753.21-.65.463-1.275.565-1.387.102-.112.188-.45.192-.752.003-.302.148-.736.322-.966.174-.23.316-.635.316-.901s.097-.544.215-.617c.118-.073.215-.35.215-.616s.142-.672.316-.901c.173-.23.321-.66.329-.955.007-.296.156-.726.33-.955.173-.23.315-.635.315-.901s.097-.544.215-.617c.118-.073.218-.345.222-.604.004-.259.149-.659.322-.888.174-.23.316-.73.316-1.111 0-1.493.441-1.68 2.283-.968.577.223 1.63.574 2.34.78.71.206 1.531.47 1.827.586.296.116 1.699.587 3.118 1.047 1.419.46 2.773.934 3.01 1.055.342.175.955-.005 3.01-.883 1.419-.606 2.991-1.205 3.494-1.33.946-.237 1.236-.586.486-.586-.455 0-2.953-.905-3.906-1.415-.314-.168-.73-.306-.924-.306-.194 0-.76-.203-1.257-.451-.497-.249-1.193-.531-1.548-.628-1.117-.304-3.208-1.12-3.65-1.424-.233-.16-.564-.292-.735-.292-.327 0-2.87-.939-3.514-1.297-.205-.114-.517-.208-.693-.208-.175 0-.83-.232-1.454-.516-.624-.284-1.328-.566-1.564-.627-.237-.06-.963-.32-1.613-.577a33.6 33.6 0 0 0-1.505-.563c-.237-.072-.433.262-.738 1.254Zm35.892 6.558a6.267 6.267 0 0 1-1.398.512c-.93.2-3.396 1.026-3.978 1.332-.236.125-.768.296-1.182.38-.77.155-1.927.539-6.128 2.03-.591.209-1.51.499-2.043.644l-.967.263-.06 2.825c-.036 1.71.022 2.826.147 2.826.114 0 .77-.228 1.458-.506a40.13 40.13 0 0 1 3.83-1.355c.591-.18 1.393-.465 1.781-.631.389-.167.822-.303.962-.303.141 0 .888-.232 1.66-.515 2.773-1.018 5.5-1.903 6.179-2.006.964-.146 1.208-.522 1.046-1.614a46.305 46.305 0 0 1-.261-2.584c-.069-.916-.187-1.663-.263-1.658-.076.005-.429.167-.783.36Zm-23.336 5.598c-.005.115 0 14.887.007 16.212 0 .078.46.19 1.022.252 1.219.133 2.81.456 3.332.677.355.15.376-.299.376-7.716v-7.875l-.483-.191a46.248 46.248 0 0 0-1.99-.664c-.827-.26-1.596-.56-1.709-.665-.249-.233-.545-.25-.555-.03Zm25.593 2.417c-.29.168-2.961 1.243-3.929 1.58-.328.114-.215.358.806 1.738.653.883 1.188 1.66 1.188 1.727 0 .11 1.575 2.499 1.99 3.02.095.118.839 1.182 1.653 2.365.815 1.182 1.718 2.44 2.008 2.795.289.355.594.862.677 1.129.157.503.535.625.885.285.113-.109.813-.401 1.557-.65 2.016-.674 3.055-1.114 3.055-1.294 0-.089-.338-.604-.752-1.146-.414-.542-.754-1.064-.755-1.16-.001-.096-.339-.53-.752-.966-.413-.436-.751-.892-.751-1.014s-.276-.54-.613-.928c-.338-.389-.652-.814-.699-.946-.047-.131-.304-.518-.571-.86-.267-.341-1.158-1.588-1.979-2.77a653.707 653.707 0 0 0-1.835-2.634c-.363-.512-.655-.579-1.183-.271Zm-29.525 8.621c-.317.484-.576.968-.576 1.075a.197.197 0 0 1-.196.196c-.109 0-.5.493-.871 1.096-.37.602-.767 1.207-.88 1.343-.48.582-4.263 5.927-4.479 6.33a3.68 3.68 0 0 1-.527.733c-.16.16-.548.675-.862 1.146-.595.888-2.29 3.259-4.607 6.443-.742 1.02-1.297 1.938-1.233 2.041.17.276 3.503 2.584 3.732 2.584.107 0 .326.158.487.35.16.194.59.557.957.807.87.594 3.86 2.675 5.899 4.106.414.29 1.623 1.16 2.688 1.932 2.444 1.774 6.455 4.637 7.09 5.06.266.177 1.09.758 1.83 1.29.741.532 1.69 1.198 2.11 1.479.42.281.959.692 1.197.914.237.221.513.402.612.402.1 0 .807.486 1.572 1.08 1.588 1.232 1.636 1.179 1.065-1.187-.617-2.555-.413-3.332 1.675-6.388.2-.292.175-.446-.118-.752-.437-.456-1.67-2.036-2.356-3.017-.578-.826-.758-.864-1.006-.213-.102.27-.53.902-.952 1.406-.435.52-.715 1.054-.646 1.232.086.223-.033.314-.41.314-.561 0-.674-.077-4.813-3.287A98.898 98.898 0 0 0 68.8 59.37c-1.473-1.056-3.374-2.454-7.568-5.57-1.223-.907-2.311-1.65-2.419-1.65-.108 0-.196-.295-.196-.655 0-.437.302-1.051.914-1.855.502-.66 1.01-1.358 1.129-1.55.118-.191.508-.735.867-1.208a25.39 25.39 0 0 0 1.007-1.421c.194-.309.481-.696.637-.86.157-.164.792-1.058 1.413-1.986l1.128-1.686v-4.602c0-2.532-.08-4.603-.177-4.603-.097 0-.436.396-.752.88Zm28.38 4.98c-.2.384-.553.989-.783 1.344-.23.355-.576.955-.77 1.334-.193.378-.488.802-.654.94-.167.138-.303.334-.303.435 0 .102-.468.889-1.04 1.748-1.011 1.522-2.505 3.879-2.938 4.636-.118.207-.432.68-.698 1.05-.602.837-.602.833.063 1.653 1.345 1.658 2.05 2.652 2.269 3.2.13.326.316.592.414.592.098 0 .317-.266.487-.592.638-1.22.934-1.708 1.993-3.278.598-.887 1.156-1.758 1.24-1.935.083-.178.416-.733.74-1.234a220.98 220.98 0 0 0 1.75-2.795c.64-1.036 1.394-2.162 1.676-2.502.434-.525.47-.675.234-.995a415.08 415.08 0 0 0-1.526-2.03c-.687-.91-1.302-1.793-1.367-1.962-.182-.474-.39-.371-.787.391Zm-24.05 3.894c-.579.597-2.938 3.692-2.958 3.88-.011.108.286.23.66.271.375.041 1.224.227 1.886.413.662.186 1.64.42 2.171.52.964.182 2.286.498 4.945 1.185.77.199 1.785.431 2.258.517.473.085 1.247.278 1.72.427 2.253.71 2.12.7 2.52.182.205-.267.375-.567.378-.667.002-.1.222-.486.488-.859.78-1.092 1.272-2.106 1.16-2.394-.056-.148-.57-.326-1.142-.396a16.084 16.084 0 0 1-2.221-.483 24.333 24.333 0 0 0-2.15-.535c-1.217-.223-4.316-1.002-5.59-1.405-.533-.168-1.174-.305-1.426-.305-.251 0-.804-.144-1.23-.321-.948-.397-1.11-.4-1.468-.03Zm41.232 5.558c-.62.347-3.855 1.45-4.265 1.455-.52.006-.471.27.161.865.296.277.537.616.537.752s.242.475.538.753c.706.663.75 1.838.078 2.051-.252.08-.874.45-1.381.821a89.7 89.7 0 0 1-1.705 1.213c-.431.295-1.241.876-1.8 1.29-.56.414-1.17.85-1.356.967-.308.196-2.134 1.498-3.619 2.58a345.06 345.06 0 0 1-3.741 2.688 35.5 35.5 0 0 0-1.222.905c-.882.683-1.638.61-1.835-.178-.07-.282-.21-.512-.31-.512s-.347-.348-.549-.772c-.2-.425-.496-.822-.655-.883-.158-.061-.288-.282-.288-.492 0-.209-.161-.513-.358-.676-.197-.162-.671-.783-1.053-1.379-.383-.596-.85-1.213-1.04-1.37-.19-.157-.344-.396-.344-.53 0-.135-.218-.487-.484-.782-.266-.296-.822-1.044-1.236-1.664-.414-.62-.898-1.126-1.075-1.125-.178 0-1-.152-1.828-.34-.828-.188-2.182-.493-3.01-.678-.828-.186-1.674-.424-1.881-.529-.466-.236-.504.096-.054.47.177.147.323.356.323.465 0 .11.241.46.537.778.296.319.538.649.538.733 0 .14 2.346 3.492 3.493 4.99.262.343.575.8.696 1.013.486.863 2.722 4.034 3.018 4.28.175.145.318.357.318.471 0 .245 1.112 1.867 2.096 3.058.384.464.699.95.699 1.08 0 .13.17.391.376.58.207.19.667.838 1.021 1.442.694 1.18.999 1.33 1.44.71.154-.218.667-.655 1.14-.971a67.287 67.287 0 0 0 2.15-1.534c.71-.527 1.436-1.026 1.613-1.108.178-.082.771-.52 1.32-.973.548-.453 1.051-.824 1.117-.824.155 0 3.674-2.56 4.658-3.39.414-.348.973-.748 1.241-.889.269-.141 1.297-.856 2.286-1.59a169.9 169.9 0 0 1 3.025-2.194c.676-.473 1.428-1.03 1.672-1.236.243-.207.524-.376.624-.376.1 0 .544-.326.988-.724.444-.397 1.097-.885 1.452-1.084.815-.456 2.013-1.317 2.608-1.874.252-.236.779-.602 1.171-.812 1.205-.646.992-.812-1.245-.968-3.124-.217-3.5-.311-3.74-.942-.113-.3-.501-.88-.861-1.29-.359-.41-.756-.969-.881-1.244-.281-.615-.616-.758-1.118-.477Z" fill="#B37028"/></svg>