<svg width="49" height="48" viewBox="0 0 49 48" fill="none" xmlns="http://www.w3.org/2000/svg">
<g clip-path="url(#clip0_1_1397)">
<path d="M22.3136 17.3367H22.1993V4.52341C22.1993 1.98172 19.8511 -0.0761719 16.9664 -0.0761719C14.0821 -0.0761719 11.7339 1.97308 11.7339 4.52341V17.3367H11.6196C10.6478 17.3367 9.8606 18.1239 9.8606 19.0957V19.9751C9.8606 20.9469 10.6478 21.7338 11.6196 21.7338H14.3107V34.9255L13.2728 40.6067C13.2562 40.7062 13.2562 40.8062 13.2728 40.9056L14.3197 47.2026C14.389 47.6325 14.7636 47.9466 15.1988 47.9412H18.7605C19.1958 47.9466 19.5707 47.6325 19.64 47.2026L20.6865 40.9056C20.7032 40.8065 20.7032 40.7062 20.6865 40.6067L19.649 34.9255V21.7338H22.3401C23.3119 21.7338 24.0991 20.9469 24.0991 19.9751V19.0957C24.0991 18.1239 23.3119 17.3367 22.3401 17.3367C22.3321 17.3367 22.3231 17.3367 22.3136 17.3367ZM13.4926 4.52341C13.4926 2.95796 15.0494 1.6828 16.9664 1.6828C18.8835 1.6828 20.4403 2.9404 20.4403 4.52341V17.3367H13.4926V4.52341ZM18.0043 46.0944H15.9289L15.0494 40.6859L16.0694 35.0839C16.0747 35.0312 16.0747 34.9782 16.0694 34.9255V21.6108H17.8724V34.9079C17.8671 34.9606 17.8671 35.0133 17.8724 35.0663L18.9014 40.6683L18.0043 46.0944ZM22.2785 19.8694H15.1813C15.1348 19.865 15.0872 19.865 15.0407 19.8694H11.6547V19.0692H21.3287C21.3901 19.0763 21.4517 19.0763 21.5133 19.0692H22.2871L22.2785 19.8694Z" fill="#131D3B"/>
<path d="M15.6039 4.90149C15.1183 4.90149 14.7244 5.29538 14.7244 5.78097V14.0652C14.7244 14.5505 15.1183 14.9447 15.6039 14.9447C16.0891 14.9447 16.4833 14.5505 16.4833 14.0652V5.78097C16.4833 5.29538 16.09 4.90149 15.6039 4.90149Z" fill="#131D3B"/>
<path d="M18.3299 4.90149C17.8443 4.90149 17.4504 5.29538 17.4504 5.78097V14.0652C17.4504 14.5505 17.8443 14.9447 18.3299 14.9447C18.8152 14.9447 19.2094 14.5505 19.2094 14.0652V5.78097C19.2094 5.29538 18.8161 4.90149 18.3299 4.90149Z" fill="#131D3B"/>
<path d="M39.1635 6.91537C39.1653 3.76006 37.0124 1.01174 33.9485 0.2579C33.4772 0.141191 33.0005 0.427902 32.8826 0.899204C32.8552 1.01174 32.8499 1.12875 32.8665 1.24308L33.4998 5.40262C33.6362 6.31366 33.0083 7.16159 32.0972 7.29795C31.1862 7.43431 30.3382 6.8061 30.2022 5.89506L29.6127 1.97281C29.5371 1.49257 29.0869 1.16567 28.6067 1.24129C28.4685 1.26303 28.3366 1.31751 28.2232 1.40117C25.1733 3.64127 24.5174 7.92824 26.7572 10.9782C27.2303 11.623 27.8135 12.1795 28.4783 12.6228V34.4944C25.3442 36.6226 24.5278 40.889 26.6563 44.0232C27.5893 45.3978 28.9901 46.3871 30.5979 46.8066C30.6708 46.8155 30.7446 46.8155 30.8176 46.8066C31.3032 46.812 31.7015 46.4231 31.7069 45.9369C31.7078 45.8893 31.7042 45.842 31.6971 45.7952L31.0376 41.3981C30.8995 40.4897 31.5229 39.6409 32.4316 39.5031C33.3399 39.3649 34.1885 39.9884 34.3266 40.897L34.9599 45.0831C35.031 45.5633 35.4788 45.8947 35.959 45.8235C36.1005 45.8024 36.2341 45.7479 36.3494 45.6633C39.4151 43.4375 40.0948 39.1479 37.869 36.0819C37.395 35.4287 36.8093 34.8648 36.1383 34.4155V12.6142C38.03 11.3336 39.1626 9.19923 39.1635 6.91537ZM34.7663 35.7523C36.3845 36.6511 37.3932 38.3509 37.4048 40.2021C37.4125 41.2864 37.0696 42.3443 36.4286 43.2187L36.0504 40.7297C35.7661 38.8603 34.0196 37.5744 32.1499 37.8584C30.2805 38.1425 28.9946 39.8892 29.2786 41.7586L29.7097 44.6168C27.277 43.1967 26.4565 40.0729 27.8769 37.6405C28.3387 36.8488 29.0053 36.1971 29.8065 35.7523C30.0825 35.5966 30.254 35.3045 30.2549 34.9871V12.1217C30.254 11.804 30.0825 11.5123 29.8065 11.3566C27.3509 9.97481 26.4803 6.86535 27.8621 4.4097C27.9508 4.2525 28.0475 4.09947 28.1532 3.9518L28.4873 6.17671C28.7686 8.04643 30.5136 9.33381 32.3833 9.05245C34.2528 8.7711 35.5404 7.02612 35.2591 5.1564L34.8545 2.51824C37.3045 3.90773 38.1646 7.02077 36.7751 9.47106C36.3205 10.2731 35.6565 10.9362 34.8545 11.3917C34.5782 11.5474 34.4067 11.8395 34.4058 12.1569V35.0223C34.4094 35.3176 34.5615 35.5921 34.8104 35.7523H34.7663Z" fill="#131D3B"/>
</g>
<defs>
<clipPath id="clip0_1_1397">
<rect width="48" height="48" fill="white" transform="translate(0.5)"/>
</clipPath>
</defs>
</svg>
