<svg width="48" height="48" viewBox="0 0 48 48" fill="none" xmlns="http://www.w3.org/2000/svg">
<g clip-path="url(#clip0_1_1393)">
<path d="M24.0534 21.8059C26.5791 21.8059 28.6265 19.7586 28.6265 17.2331C28.6265 14.7073 26.5791 12.66 24.0534 12.66C21.5312 12.66 19.4856 14.7019 19.4802 17.2241C19.4749 19.7499 21.5186 21.8008 24.0444 21.8062C24.0471 21.8059 24.0498 21.8059 24.0534 21.8059ZM24.0534 14.4167C25.6034 14.4167 26.8608 15.6737 26.8608 17.2241C26.8608 18.7742 25.6034 20.0316 24.0534 20.0316C22.503 20.0316 21.2459 18.7742 21.2459 17.2241C21.2459 15.6737 22.5021 14.4167 24.0534 14.4167Z" fill="#131D3B"/>
<path d="M41.8864 43.4177C42.9617 42.2815 43.1249 40.5601 42.2835 39.242L31.6897 22.5298C34.6296 18.3029 33.5861 12.4931 29.3589 9.5532C28.6643 9.07029 27.9069 8.68367 27.108 8.40469V0.882689C27.1077 0.395596 26.7124 0 26.225 0H21.8109C21.3235 0 20.9279 0.395596 20.9279 0.882689V8.431C16.069 10.1198 13.4989 15.4276 15.1878 20.2866C15.4676 21.0927 15.8579 21.8564 16.3461 22.5564L5.75208 39.2507C4.93367 40.5831 5.12714 42.3 6.22003 43.4177L4.1984 46.6312C3.93766 47.0436 4.05966 47.5893 4.472 47.8497C4.88434 48.1102 5.42974 47.9882 5.69018 47.5758L7.71181 44.3713C9.21197 44.8638 10.8547 44.2705 11.6935 42.9321L16.3461 35.4723H23.4088V37.0613C23.4088 37.5487 23.8041 37.9443 24.2915 37.9443C24.7789 37.9443 25.1745 37.5487 25.1745 37.0613V35.4723H31.7693L36.413 42.9321C37.2445 44.2574 38.867 44.8533 40.3591 44.38L42.3807 47.5848C42.6411 47.9971 43.1868 48.1188 43.5992 47.8584C44.0112 47.5979 44.1332 47.0522 43.8728 46.6402L41.8864 43.4177ZM22.7202 1.76568H25.3686V7.99832C24.491 7.85898 23.5975 7.85898 22.7202 7.99832V1.76568ZM24.0532 9.65815C28.237 9.65815 31.6278 13.0493 31.6278 17.2331C31.6278 21.4166 28.237 24.8077 24.0532 24.8077C19.8694 24.8077 16.4783 21.4166 16.4783 17.2331C16.4828 13.052 19.8712 9.66353 24.0532 9.65815ZM10.1661 41.9875C9.5959 42.7237 8.53649 42.858 7.80002 42.2878C7.1706 41.8004 6.96846 40.9389 7.31472 40.2219L17.5643 23.9953C18.3764 24.7829 19.3246 25.4177 20.3628 25.8671L10.1661 41.9875ZM25.1745 33.733V31.941C25.1745 31.4536 24.7789 31.0583 24.2915 31.0583C23.8041 31.0583 23.4088 31.4536 23.4088 31.941V33.7066H17.4585L22.1108 26.3437C23.3912 26.6182 24.7152 26.6182 25.9953 26.3437L30.648 33.7066L25.1745 33.733ZM41.0034 41.458C40.7944 42.3655 39.8884 42.9312 38.9818 42.7222C38.5521 42.6232 38.1786 42.3592 37.9403 41.9875L27.7347 25.8142C28.7729 25.3648 29.721 24.7299 30.5332 23.9423L40.827 40.1866C41.0531 40.5696 41.1165 41.028 41.0034 41.458Z" fill="#131D3B"/>
</g>
<defs>
<clipPath id="clip0_1_1393">
<rect width="48" height="48" fill="white"/>
</clipPath>
</defs>
</svg>
