<svg width="49" height="48" viewBox="0 0 49 48" fill="none" xmlns="http://www.w3.org/2000/svg">
<g clip-path="url(#clip0_1_1385)">
<path d="M22.4962 14.7065C21.6903 11.1263 18.1344 8.878 14.5541 9.68388C10.9742 10.4898 8.72597 14.0457 9.53184 17.6256C10.3377 21.2058 13.8937 23.4541 17.4736 22.6482C17.4792 22.6473 17.4846 22.6454 17.4893 22.6444C21.0481 21.86 23.2973 18.3394 22.5129 14.7806C22.5072 14.7557 22.5015 14.7305 22.4962 14.7065ZM15.9817 20.9507C13.3455 20.9649 11.1966 18.8384 11.1827 16.2018C11.1704 13.9517 12.732 11.9984 14.9301 11.5145C15.2783 11.4354 15.6338 11.3944 15.9911 11.3934C18.6267 11.4625 20.7075 13.6549 20.6384 16.2914C20.5826 18.428 19.1143 20.2659 17.0427 20.7926C16.7068 20.8699 16.3633 20.91 16.0189 20.9135L15.9817 20.9507Z" fill="#131D3B"/>
<path d="M46.5338 6.05159C46.2228 6.03866 45.926 6.18185 45.7428 6.43324L42.6997 10.5557C41.9821 11.4893 40.6561 11.6902 39.6938 11.0117C38.7362 10.3046 38.5321 8.95526 39.2377 7.99673L42.1039 4.10677C42.4224 3.70273 42.3534 3.11827 41.9496 2.80002C41.819 2.69783 41.6639 2.63159 41.4989 2.60825C37.0377 1.93264 32.873 5.0019 32.1974 9.46433C32.0523 10.4238 32.0795 11.4019 32.2766 12.3519L31.1787 13.4502L30.4898 10.4162C30.3747 9.91569 29.8748 9.6028 29.3742 9.71824H29.3733L26.721 10.3232C26.2611 9.47727 25.7019 8.69 25.055 7.97812L26.5068 5.67941C26.7812 5.24477 26.6528 4.67072 26.2182 4.39505L22.2166 1.87303C21.7819 1.59862 21.2079 1.72699 20.9325 2.16163L19.4807 4.46949C18.5726 4.19603 17.6356 4.03044 16.689 3.9765L16.0932 1.32421C15.9781 0.823341 15.4781 0.510769 14.9776 0.62621H14.9766L10.3234 1.67779C9.81999 1.77904 9.49322 2.27045 9.59573 2.77384C9.59668 2.77763 9.59763 2.78141 9.59763 2.7852L10.2212 5.39995C9.37526 5.85982 8.58768 6.41904 7.87611 7.06595L5.5774 5.61412C5.14276 5.33971 4.5684 5.46808 4.29305 5.90272L1.77102 9.90433C1.49662 10.339 1.62499 10.913 2.05962 11.1884L4.35834 12.6402C4.08456 13.5486 3.91897 14.4857 3.86503 15.4322L1.22221 16.1022C0.721651 16.2176 0.408764 16.7172 0.524204 17.2181V17.219L1.56632 21.872C1.68176 22.3725 2.18169 22.6854 2.68224 22.57H2.68319L5.33548 21.9745C5.79535 22.8195 6.35457 23.6067 7.00116 24.3196L5.54964 26.6183C5.30583 27.0535 5.44997 27.6036 5.87515 27.8651L9.87676 30.3871C10.025 30.4792 10.196 30.5278 10.3701 30.5268H10.5284C10.7675 30.472 10.9741 30.3247 11.1053 30.1174L12.5571 27.8187C13.4652 28.0922 14.4023 28.2578 15.3488 28.3117L15.5258 29.0936L13.3668 31.2526C12.8214 31.1409 12.2669 31.0851 11.7102 31.0851C7.19199 31.0917 3.53575 34.7593 3.54205 39.2773C3.54395 40.7402 3.93853 42.1762 4.68416 43.4344C4.9491 43.8747 5.52063 44.017 5.96094 43.7517C6.06502 43.6892 6.15618 43.6066 6.22872 43.5088L9.421 39.1817C10.1392 38.2427 11.4721 38.0415 12.436 38.7256C13.3844 39.4132 13.6078 40.7329 12.9388 41.6943L9.89569 45.8262C9.60236 46.2485 9.70739 46.8282 10.13 47.1215C10.2493 47.2045 10.3862 47.2575 10.5284 47.278C10.9529 47.3449 11.3825 47.3792 11.8128 47.3802C13.9809 47.3868 16.0626 46.526 17.5917 44.9887C19.535 43.0373 20.3705 40.2415 19.816 37.5438L38.6331 18.7362C39.1784 18.8478 39.7329 18.9036 40.2893 18.9036C44.8076 18.8998 48.4666 15.2351 48.4629 10.7168C48.4619 9.22967 48.0553 7.77153 47.2876 6.49853C47.1265 6.23295 46.8435 6.06452 46.5338 6.05159ZM12.4918 25.8086C12.0786 25.6588 11.6172 25.8178 11.3844 26.1899L10.0442 28.3212L7.61558 26.8044L8.95545 24.6731C9.18917 24.3009 9.13145 23.8162 8.81604 23.5099C7.92532 22.6435 7.2005 21.6215 6.67534 20.4946C6.49209 20.0937 6.05399 19.8767 5.62377 19.9735L3.17649 20.5321L2.54346 17.7401L4.99105 17.1818C5.42379 17.084 5.72817 16.6951 5.71713 16.251C5.70483 15.0067 5.91899 13.77 6.34984 12.603C6.49966 12.1898 6.34038 11.7284 5.96819 11.4956L3.84643 10.1463L5.3727 7.71727L7.50361 9.05746C7.87422 9.2937 8.35901 9.23976 8.66685 8.92719C9.53328 8.03647 10.5552 7.31166 11.6822 6.78681C12.0796 6.60072 12.2925 6.1623 12.1941 5.73523L11.6355 3.28765L14.4275 2.65493L14.9858 5.1022C15.0836 5.53495 15.4725 5.83932 15.9166 5.82828C17.1605 5.81882 18.3957 6.03393 19.5646 6.46099C19.9775 6.61081 20.4392 6.45185 20.672 6.07935L22.0119 3.94843L24.4409 5.4747L23.1007 7.60562C22.8673 7.9778 22.925 8.46259 23.2404 8.76885C24.145 9.63529 24.8827 10.6607 25.418 11.7933C25.6041 12.1907 26.0425 12.404 26.4696 12.3052L28.9172 11.747L29.6615 15.0225L17.1356 27.5115L17.0426 27.1671C16.9448 26.7343 16.5559 26.43 16.1118 26.4413C14.877 26.4498 13.6507 26.2357 12.4918 25.8086ZM44.7562 15.1903C43.5762 16.3832 41.9673 17.0534 40.2893 17.0515C39.7143 17.0515 39.1409 16.9733 38.5864 16.8188C38.2549 16.72 37.8966 16.8131 37.6556 17.0607L18.1128 36.6035C17.8652 36.8445 17.7721 37.2031 17.8709 37.5343C18.4783 39.7324 17.8604 42.0876 16.2515 43.7041C15.2334 44.7288 13.8913 45.3701 12.4546 45.5189L14.4461 42.8203C15.762 41.0382 15.3842 38.5272 13.6021 37.2113C12.9113 36.7013 12.0758 36.4269 11.2169 36.4269C9.94363 36.4307 8.74696 37.0338 7.98745 38.0554L5.74488 41.0985C4.71727 37.7633 6.58892 34.2269 9.92313 33.1996C11.0791 32.8432 12.313 32.8265 13.4781 33.1511C13.8093 33.2498 14.1676 33.1567 14.4089 32.9091L33.9518 13.3196C34.1981 13.0786 34.2924 12.7203 34.1937 12.3891C33.583 10.191 34.2019 7.83461 35.813 6.21907C36.8132 5.21323 38.1256 4.57673 39.5355 4.41398L37.7392 6.88932C36.4233 8.67234 36.8031 11.1849 38.5861 12.5008C40.3691 13.8167 42.8817 13.4369 44.1979 11.6539L46.3007 8.79693C47.0277 11.049 46.4313 13.518 44.7562 15.1903Z" fill="#131D3B"/>
</g>
<defs>
<clipPath id="clip0_1_1385">
<rect width="48" height="48" fill="white" transform="translate(0.5)"/>
</clipPath>
</defs>
</svg>
