<svg width="49" height="48" viewBox="0 0 49 48" fill="none" xmlns="http://www.w3.org/2000/svg">
<g clip-path="url(#clip0_1_1403)">
<path d="M45.247 22.7559L43.3382 21.935V20.6299C43.365 12.6193 38.3106 5.47203 30.7488 2.82852V0.989095C30.7488 0.443098 30.3057 0 29.76 0H19.178C18.6323 0 18.1892 0.443098 18.1892 0.989095V2.83824C10.6274 5.48175 5.57295 12.629 5.59977 20.6396V21.9548L3.71073 22.7559C3.34472 22.9104 3.10742 23.2694 3.10742 23.6659V28.858C3.10742 29.4037 3.55052 29.8468 4.09652 29.8468H5.38224V31.825C5.38224 32.3706 5.825 32.8137 6.371 32.8137H9.92148C10.2587 34.0519 10.7541 35.2427 11.3949 36.3542L8.88312 38.8663C8.49935 39.2517 8.49935 39.8748 8.88312 40.2606L13.0862 44.4637C13.4716 44.8475 14.0947 44.8475 14.4805 44.4637L16.9923 41.9519C18.101 42.5927 19.2879 43.0871 20.523 43.4253V46.9758C20.523 47.5215 20.9661 47.9646 21.5121 47.9646H27.4457C27.9917 47.9646 28.4348 47.5215 28.4348 46.9758V43.4253C29.6729 43.0881 30.8634 42.5938 31.9752 41.9519L34.4873 44.4637C34.8728 44.8475 35.4958 44.8475 35.8816 44.4637L40.0847 40.2606C40.4685 39.8748 40.4685 39.2517 40.0847 38.8663L37.5726 36.3542C38.2134 35.2427 38.7091 34.0519 39.0463 32.8137H42.5965C43.1425 32.8137 43.5856 32.3706 43.5856 31.825V29.8468H44.8713C45.4173 29.8468 45.8601 29.4037 45.8601 28.858V23.6659C45.858 23.2664 45.616 22.9074 45.247 22.7559ZM20.1473 1.98791H28.7709V18.5133H20.167L20.1473 1.98791ZM41.6174 30.8359H38.3244C37.8498 30.8248 37.4351 31.1533 37.3353 31.6168C37.0021 33.1657 36.3891 34.6401 35.5257 35.9684C35.2713 36.3592 35.3259 36.8744 35.654 37.2045L38.0177 39.5681L35.1892 42.3769L32.8255 40.0133C32.4954 39.6851 31.9802 39.6305 31.5894 39.8849C30.2611 40.748 28.7867 41.3613 27.2379 41.6945C26.774 41.7944 26.4458 42.209 26.4566 42.6836V46.0162H22.5009V42.6537C22.5119 42.1791 22.1834 41.7649 21.7196 41.665C20.1711 41.3325 18.6963 40.7195 17.3684 39.8551C16.9775 39.601 16.4624 39.6553 16.1319 39.9838L13.7683 42.3474L10.9696 39.5484L13.3332 37.1847C13.6617 36.8546 13.716 36.3394 13.4619 35.9486C12.5905 34.6284 11.9674 33.1607 11.6225 31.6168C11.5223 31.1533 11.108 30.8248 10.6334 30.8359H7.34032V29.8468H16.3793C16.9212 34.315 20.9829 37.4975 25.451 36.9545C29.1735 36.5027 32.1076 33.5692 32.5587 29.8468H41.6077L41.6174 30.8359ZM18.3967 29.8468H30.5708C30.0268 33.2113 26.8581 35.4978 23.494 34.9538C20.8692 34.5295 18.8113 32.4715 18.3869 29.8468H18.3967ZM43.8923 27.8689H5.07556V24.3185L6.98403 23.4976C7.35004 23.3434 7.58734 22.9845 7.58734 22.5876V20.6098C7.56556 13.7029 11.7706 7.48642 18.1892 4.93475V19.5024C18.1892 20.048 18.632 20.4911 19.178 20.4911H29.7795C30.3255 20.4911 30.7686 20.048 30.7686 19.5024V4.93475C37.1978 7.48541 41.408 13.7139 41.3801 20.6295V22.6077C41.3801 23.0042 41.6174 23.3632 41.9834 23.5174L43.8919 24.3382V27.8689H43.8923Z" fill="#131D3B"/>
</g>
<defs>
<clipPath id="clip0_1_1403">
<rect width="48" height="48" fill="white" transform="translate(0.5)"/>
</clipPath>
</defs>
</svg>
