<svg width="48" height="48" viewBox="0 0 48 48" fill="none" xmlns="http://www.w3.org/2000/svg">
<g clip-path="url(#clip0_1_1389)">
<path d="M47.0028 31.5149H13.388V15.5358C13.388 15.004 12.9568 14.5725 12.425 14.5725H0.963278C0.431533 14.5725 0 15.004 0 15.5358V43.8916C0 44.4233 0.431533 44.8549 0.963278 44.8549H47.0028C47.5345 44.8549 47.9661 44.4233 47.9661 43.8916V32.4782C47.9661 31.9464 47.5345 31.5149 47.0028 31.5149ZM1.92623 16.4991H11.4617V32.0832L1.92623 41.5704V16.4991ZM46.0398 42.9283H3.29395L12.7815 33.4411H14.1009V35.8299C14.1009 36.3617 14.5324 36.7932 15.0641 36.7932C15.5959 36.7932 16.0271 36.3617 16.0271 35.8299V33.4411H17.9537V35.8299C17.9537 36.3617 18.3852 36.7932 18.9166 36.7932C19.4484 36.7932 19.8799 36.3617 19.8799 35.8299V33.4411H21.8064V37.8717C21.8064 38.4034 22.2376 38.835 22.7694 38.835C23.3011 38.835 23.7327 38.4034 23.7327 37.8717V33.4411H25.6589V35.8299C25.6589 36.3617 26.0904 36.7932 26.6222 36.7932C27.1539 36.7932 27.5855 36.3617 27.5855 35.8299V33.4411H29.5117V35.8299C29.5117 36.3617 29.9432 36.7932 30.475 36.7932C31.0064 36.7932 31.4379 36.3617 31.4379 35.8299V33.4411H33.3645V37.8717C33.3645 38.4034 33.796 38.835 34.3274 38.835C34.8592 38.835 35.2907 38.4034 35.2907 37.8717V33.4411H37.2169V35.8299C37.2169 36.3617 37.6485 36.7932 38.1802 36.7932C38.7119 36.7932 39.1435 36.3617 39.1435 35.8299V33.4411H41.0697V35.8299C41.0697 36.3617 41.5012 36.7932 42.033 36.7932C42.5647 36.7932 42.9959 36.3617 42.9959 35.8299V33.4411H46.1747L46.0398 42.9283Z" fill="#131D3B"/>
<path d="M24.3393 30.6577C24.5443 30.6558 24.7437 30.5882 24.9076 30.4652L34.1924 23.6553C34.1924 23.6553 34.2502 23.5783 34.2887 23.5397C34.3272 23.5012 34.3657 23.4918 34.3948 23.4434L44.2094 10.1035C45.0907 9.11243 45.3199 7.7013 44.797 6.48211C44.478 5.8397 44.0015 5.28968 43.41 4.88295L42.2832 4.07408C41.6166 3.54723 40.8009 3.24365 39.9522 3.20709C38.7715 3.24659 37.6878 3.87071 37.0627 4.87349L27.2866 18.252C27.2549 18.3068 27.2298 18.3656 27.2096 18.4253C27.2096 18.4253 27.2096 18.4831 27.1518 18.5122L23.4338 29.3863C23.2634 29.89 23.534 30.4371 24.0377 30.6065C24.1379 30.6404 24.243 30.6577 24.3491 30.6577C24.3488 30.6577 24.3393 30.6577 24.3393 30.6577ZM38.6426 6.0101C38.9187 5.51981 39.4119 5.19045 39.9714 5.12386C40.4118 5.16433 40.8286 5.33864 41.1658 5.62459L42.2639 6.4338C42.5893 6.6476 42.8583 6.93845 43.0441 7.28152C43.1211 7.45485 43.3715 7.98464 42.6589 8.95738L42.023 9.82404L40.0197 8.35056L38.0067 6.88655L38.6426 6.0101ZM36.8606 8.43706L38.0935 9.34256L32.3142 17.183C31.9734 17.5913 32.0292 18.1991 32.4376 18.5389C32.8459 18.8791 33.4537 18.8239 33.7935 18.4155C33.8196 18.3848 33.8428 18.3532 33.865 18.3192L39.644 10.4792L40.8675 11.3843L33.4221 21.5365L29.4152 18.5892L36.8606 8.43706ZM28.5482 20.3516L31.9966 22.8849L29.8582 24.4547L27.691 22.8657L28.5482 20.3516ZM27.0362 24.7726L28.2303 25.6491L26.2463 27.1036L27.0362 24.7726Z" fill="#131D3B"/>
</g>
<defs>
<clipPath id="clip0_1_1389">
<rect width="48" height="48" fill="white"/>
</clipPath>
</defs>
</svg>
