<svg width="371" height="80" fill="none" xmlns="http://www.w3.org/2000/svg"><g clip-path="url(#a)"><path d="M79.861 39.998a40.052 40.052 0 0 1-6.729 22.222 39.944 39.944 0 0 1-17.92 14.732 39.865 39.865 0 0 1-23.07 2.276A39.907 39.907 0 0 1 11.7 68.28 40.02 40.02 0 0 1 .77 47.801a40.063 40.063 0 0 1 2.272-23.11A39.984 39.984 0 0 1 17.75 6.742 39.88 39.88 0 0 1 39.932 0a39.894 39.894 0 0 1 28.234 11.715 40.033 40.033 0 0 1 11.695 28.283Z" fill="#ED1C24"/><path d="M41.362 48.456H26.73a.052.052 0 0 0-.052.052v14.845a2.215 2.215 0 0 0 2.211 2.214h10.333a2.208 2.208 0 0 0 2.21-2.214V48.508a.052.052 0 0 0-.052-.052" fill="#E5BDBF"/><path d="M61.977 31.178c-.148-9.391-8.212-16.735-17.587-16.735H26.73a.052.052 0 0 0-.052.048v38.342c0-4.093 1.975-4.362 2.358-4.373h15.958a16.953 16.953 0 0 0 12.1-5.08 17.012 17.012 0 0 0 4.875-12.202" fill="#fff"/><path d="M95.134 56.951h4.513v3.11h-4.513v5.26h5.25v3.11H91.69v-19.51h8.694v3.137h-5.25v4.893Zm18.147 11.48h-3.47l-4.063-10.406V68.43h-3.474V48.92h3.474l4.063 10.857V48.92h3.47v19.51Zm2.262-5.376V54.26c0-1.848.517-3.248 1.551-4.2 1.034-.952 2.398-1.428 4.092-1.428 1.619 0 2.927.463 3.924 1.388.997.925 1.495 2.291 1.495 4.1v.594h-3.47v-.594a2.465 2.465 0 0 0-.563-1.739 1.922 1.922 0 0 0-1.474-.608 1.752 1.752 0 0 0-1.595.764 4.275 4.275 0 0 0-.494 2.291v7.83c0 1.905.697 2.857 2.089 2.857a1.766 1.766 0 0 0 1.525-.694 3.318 3.318 0 0 0 .508-1.992v-2.063h-2.059v-2.742h5.526v5.033c0 1.811-.522 3.196-1.566 4.155a5.743 5.743 0 0 1-4.052 1.443c-1.675 0-3.001-.476-3.978-1.428-.978-.952-1.469-2.342-1.474-4.17m16.89-14.136h-3.444v19.51h3.444v-19.51Zm13.494 19.51h-3.474l-4.063-10.406V68.43h-3.474V48.92h3.474l4.063 10.857V48.92h3.474v19.51Zm5.813-11.48h4.516v3.11h-4.516v5.26h5.249v3.11h-8.693v-19.51h8.693v3.137h-5.249v4.893Zm10.584 0h4.516v3.11h-4.516v5.26h5.253v3.11h-8.694v-19.51h8.694v3.137h-5.253v4.893Zm12.421.535c.695 0 1.175-.231 1.441-.694a5.574 5.574 0 0 0 0-4.085c-.246-.452-.731-.679-1.455-.679h-1.805v5.458h1.819Zm-1.805 3.111v7.816h-3.474V48.918h5.309c1.92 0 3.28.46 4.078 1.383.798.923 1.198 2.399 1.201 4.429a8.581 8.581 0 0 1-.538 3.25 3.779 3.779 0 0 1-1.75 1.953l2.907 8.487h-3.629l-2.457-7.834-1.647.011Zm13.067-11.676h-3.445v19.51h3.445v-19.51Zm13.49 19.51h-3.47l-4.063-10.406V68.43h-3.474V48.92h3.474l4.063 10.857V48.92h3.47v19.51Zm2.262-5.376V54.26c0-1.848.517-3.248 1.551-4.2 1.034-.952 2.398-1.428 4.092-1.428 1.619 0 2.927.463 3.924 1.388.997.925 1.495 2.291 1.495 4.1v.594h-3.47v-.594a2.462 2.462 0 0 0-.564-1.739 1.91 1.91 0 0 0-1.473-.608 1.752 1.752 0 0 0-1.595.764 4.275 4.275 0 0 0-.494 2.291v7.83c0 1.905.696 2.857 2.089 2.857a1.766 1.766 0 0 0 1.525-.694 3.318 3.318 0 0 0 .508-1.992v-2.063h-2.062v-2.742h5.525v5.033c0 1.811-.522 3.196-1.565 4.155a5.746 5.746 0 0 1-4.053 1.443c-1.674 0-3.001-.476-3.978-1.428-.978-.952-1.469-2.342-1.474-4.17m22.402-10.294c.012.402.093.799.239 1.173.244.614.542 1.205.888 1.768a6.193 6.193 0 0 0 1.057-1.543c.183-.443.274-.919.269-1.398a1.792 1.792 0 0 0-.324-1.16 1.101 1.101 0 0 0-.888-.394 1.107 1.107 0 0 0-.917.41 1.8 1.8 0 0 0-.324 1.144Zm2.682 11.48-2.174-3.561a6.997 6.997 0 0 0-1.142 1.653 3.58 3.58 0 0 0-.324 1.476 2.08 2.08 0 0 0 .409 1.384 1.38 1.38 0 0 0 1.105.48c.372.002.735-.106 1.046-.31a4.448 4.448 0 0 0 1.072-1.13l.008.008Zm5.072 1.32h.339v2.85h-1.356a2.512 2.512 0 0 1-1.425-.34 4.448 4.448 0 0 1-1.087-1.273 4.675 4.675 0 0 1-1.779 1.458 5.597 5.597 0 0 1-2.288.439 4.252 4.252 0 0 1-3.19-1.244 4.528 4.528 0 0 1-1.212-3.32 6.376 6.376 0 0 1 .737-2.898A14.633 14.633 0 0 1 223.033 58a24.663 24.663 0 0 1-1.566-2.897 5.55 5.55 0 0 1-.464-2.192 4.152 4.152 0 0 1 1.212-3.11 4.783 4.783 0 0 1 6.295 0 4.144 4.144 0 0 1 1.216 3.11 5.679 5.679 0 0 1-.648 2.547 13.219 13.219 0 0 1-2.174 2.952l1.721 2.885 1.3-2.092 2.343 1.613-2.045 3.17.509.848c.116.226.286.42.493.565.201.119.431.178.663.17m6.742-2.485V54.29c0-1.847.517-3.247 1.551-4.2 1.034-.951 2.398-1.427 4.092-1.427a5.482 5.482 0 0 1 3.924 1.413c.997.942 1.495 2.375 1.495 4.3v.593h-3.47v-.58c0-.885-.183-1.54-.549-1.966a1.862 1.862 0 0 0-1.473-.635 1.756 1.756 0 0 0-1.595.764 4.256 4.256 0 0 0-.494 2.292v7.834c0 1.904.696 2.856 2.089 2.856a1.838 1.838 0 0 0 1.473-.65 2.91 2.91 0 0 0 .549-1.922v-.509h3.444v.539c0 1.884-.521 3.303-1.565 4.255a5.741 5.741 0 0 1-4.023 1.428c-1.675 0-3.001-.476-3.978-1.428-.978-.953-1.469-2.343-1.474-4.17m20.806-.387v-7.835a4.18 4.18 0 0 0-.508-2.277 1.704 1.704 0 0 0-1.525-.779 1.758 1.758 0 0 0-1.595.764 4.275 4.275 0 0 0-.494 2.292v7.834c0 1.905.696 2.857 2.089 2.857a1.73 1.73 0 0 0 1.51-.739 3.645 3.645 0 0 0 .523-2.107v-.01Zm-7.592.405V54.29c0-1.847.517-3.247 1.551-4.2 1.034-.951 2.398-1.427 4.093-1.427 1.638 0 2.95.476 3.937 1.428.988.952 1.479 2.352 1.474 4.2v8.793c0 1.808-.522 3.193-1.566 4.155a5.743 5.743 0 0 1-4.052 1.443c-1.675 0-3.002-.476-3.982-1.428-.98-.952-1.471-2.342-1.473-4.17m24.346 5.373h-3.471l-4.066-10.403v10.403h-3.471v-19.51h3.471l4.066 10.86v-10.86h3.471v19.51Zm8.13-16.37v16.37h-3.444v-16.37h-3.386v-3.14h10.19v3.14h-3.36Zm9.935 5.428c.698 0 1.178-.23 1.441-.693a4.24 4.24 0 0 0 .394-2.048 4.272 4.272 0 0 0-.369-2.037c-.245-.453-.73-.68-1.455-.68h-1.805v5.458h1.794Zm-1.805 3.111v7.835h-3.474V48.947h5.309c1.918 0 3.277.462 4.078 1.387.8.925 1.201 2.401 1.201 4.428a8.601 8.601 0 0 1-.538 3.252 3.78 3.78 0 0 1-1.75 1.952l2.906 8.487h-3.613l-2.457-7.834-1.662.007Zm15.185-6.974-1.651 7.904h3.275l-1.624-7.904Zm-2.288 11.026-.792 3.79h-3.614l4.995-19.51h3.39l4.969 19.51h-3.614l-.792-3.79h-4.542Zm10.02-1.594V54.29c0-1.847.517-3.247 1.551-4.2 1.034-.951 2.398-1.427 4.093-1.427a5.48 5.48 0 0 1 3.923 1.413c.997.942 1.496 2.375 1.496 4.3v.593h-3.471v-.58c0-.885-.183-1.54-.549-1.966a1.858 1.858 0 0 0-1.473-.635 1.752 1.752 0 0 0-1.595.764 4.275 4.275 0 0 0-.494 2.292v7.834c0 1.904.696 2.856 2.089 2.856a1.835 1.835 0 0 0 1.473-.65 2.905 2.905 0 0 0 .549-1.922v-.509h3.445v.539c0 1.884-.522 3.303-1.566 4.255a5.74 5.74 0 0 1-4.023 1.428c-1.675 0-3.002-.476-3.982-1.428-.98-.953-1.471-2.343-1.473-4.17m19.089-10.99v16.37h-3.444v-16.37h-3.389v-3.14h10.189v3.14h-3.356Zm8.211-3.14h-3.444v19.51h3.444v-19.51Zm13.494 19.51h-3.474l-4.063-10.403v10.403h-3.474v-19.51h3.474l4.063 10.86v-10.86h3.474v19.51Zm2.258-5.373V54.29c0-1.847.517-3.247 1.551-4.2 1.034-.951 2.399-1.427 4.093-1.427 1.619 0 2.926.46 3.923 1.383.997.923 1.496 2.29 1.496 4.1v.613h-3.474v-.594a2.465 2.465 0 0 0-.563-1.738 1.922 1.922 0 0 0-1.474-.61 1.752 1.752 0 0 0-1.595.765 4.275 4.275 0 0 0-.494 2.291v7.835c0 1.904.697 2.856 2.089 2.856a1.767 1.767 0 0 0 1.525-.694 3.318 3.318 0 0 0 .508-1.993v-2.063h-2.059v-2.741h5.526v5.033c0 1.808-.522 3.193-1.566 4.155a5.743 5.743 0 0 1-4.052 1.443c-1.675 0-3.002-.476-3.982-1.428-.98-.952-1.471-2.342-1.474-4.17" fill="#A5A7AA"/><path d="M106.3 29.4a5.602 5.602 0 0 0 3.931-1.476 4.978 4.978 0 0 0 1.595-3.83 4.528 4.528 0 0 0-1.614-3.647 5.885 5.885 0 0 0-3.912-1.369h-6.086V29.36l6.086.04Zm.332-17.577c4.137 0 7.367 1.107 9.725 3.358 2.358 2.251 3.518 5.222 3.518 8.953 0 3.73-1.201 6.756-3.599 9.078-2.398 2.32-5.592 3.465-9.607 3.465h-6.414v6.672H91.69V11.864l14.942-.04ZM137.041 29.4a5.602 5.602 0 0 0 3.931-1.476 4.99 4.99 0 0 0 1.613-3.812 4.523 4.523 0 0 0-1.613-3.65 5.887 5.887 0 0 0-3.931-1.369h-6.082v10.28l6.082.027Zm4.845 13.92-5.379-6.665h-5.548v6.664h-8.564V11.823h14.978c4.137 0 7.368 1.107 9.725 3.358 2.358 2.251 3.518 5.222 3.518 8.95a13.192 13.192 0 0 1-1.448 6.177 11.085 11.085 0 0 1-4.052 4.35l7.449 8.706-10.679-.045Z" fill="#fff"/><path d="M169.691 36.363a7.983 7.983 0 0 0 5.961-2.487 8.54 8.54 0 0 0 2.442-6.177 8.687 8.687 0 0 0-2.402-6.218 8.287 8.287 0 0 0-11.917 0 8.702 8.702 0 0 0-2.442 6.218 8.531 8.531 0 0 0 2.435 6.177 7.989 7.989 0 0 0 5.956 2.487h-.033Zm12.043-20.296a16.046 16.046 0 0 1 0 23.215 17.604 17.604 0 0 1-24 0 16.047 16.047 0 0 1 0-23.215c3.315-3.192 7.323-4.768 12.001-4.768 4.679 0 8.69 1.576 12.002 4.768m33.18 13.207c-.04 4.517-1.241 8.119-3.765 10.82-2.523 2.701-5.894 4.022-10.056 4.022-3.476 0-6.414-.911-8.816-2.734a13.101 13.101 0 0 1-4.789-7.543l8.234-2.82c.289 1.617.909 2.86 1.86 3.732a5.111 5.111 0 0 0 3.558 1.328 4.498 4.498 0 0 0 3.806-1.908c.95-1.284 1.447-3.066 1.447-5.347V19.16H193.4v-7.296h21.602l-.085 17.41Zm27.021 14.097h-24.126V11.868h23.879v7.295h-15.314v4.683H241.4v7.296h-15.023v4.933h15.561v7.296Zm17.461-10.447-7.032 10.447h-9.851l10.554-15.754-10.182-15.75h9.891l6.62 10.278 6.623-10.277h9.888l-10.219 15.75 10.591 15.753h-9.887l-6.996-10.447Zm42.787-13.805V43.37h-8.564V19.119h-9.147v-7.251h26.899v7.25h-9.188Zm35.008 24.252h-24.126V11.868h23.875v7.295h-15.31v4.683h15.023v7.296h-15.023v4.933h15.561v7.296Zm17.877-6.927a7.56 7.56 0 0 0 5.047-1.823 8.085 8.085 0 0 0 2.689-4.848L371 32.179a15.529 15.529 0 0 1-5.835 8.664 16.56 16.56 0 0 1-10.179 3.321c-4.674 0-8.605-1.575-11.836-4.727-3.23-3.151-4.84-7.048-4.84-11.65 0-4.601 1.613-8.487 4.84-11.646 3.227-3.159 7.158-4.727 11.836-4.727 3.85 0 7.243 1.077 10.138 3.273a15.618 15.618 0 0 1 5.795 8.58l-8.193 2.487a8.426 8.426 0 0 0-2.689-4.934 7.394 7.394 0 0 0-5.047-1.863 7.47 7.47 0 0 0-5.75 2.487c-1.533 1.657-2.277 3.73-2.277 6.218a8.83 8.83 0 0 0 2.317 6.218 7.574 7.574 0 0 0 5.795 2.487l-.004.078Z" fill="#fff"/></g><defs><clipPath id="a"><path fill="#fff" d="M0 0h371v80H0z"/></clipPath></defs></svg>