<svg width="49" height="48" fill="none" xmlns="http://www.w3.org/2000/svg"><g clip-path="url(#a)" fill="#131D3B"><path d="M22.314 17.337h-.115V4.523c0-2.541-2.348-4.6-5.233-4.6-2.884 0-5.232 2.05-5.232 4.6v12.814h-.114a1.76 1.76 0 0 0-1.76 1.759v.88c0 .97.788 1.758 1.76 1.758h2.69v13.191l-1.037 5.682c-.017.1-.017.2 0 .299l1.047 6.297a.88.88 0 0 0 .879.738h3.562a.88.88 0 0 0 .879-.738l1.046-6.297c.017-.1.017-.2 0-.3l-1.037-5.68V21.733h2.691a1.76 1.76 0 0 0 1.76-1.759v-.88c0-.971-.788-1.758-1.76-1.758h-.026ZM13.493 4.523c0-1.565 1.556-2.84 3.473-2.84 1.918 0 3.474 1.257 3.474 2.84v12.814h-6.947V4.523Zm4.511 41.571H15.93l-.88-5.408 1.02-5.602a.791.791 0 0 0 0-.159V21.611h1.803v13.297a.791.791 0 0 0 0 .158l1.03 5.602-.898 5.426Zm4.274-26.225h-7.097a.75.75 0 0 0-.14 0h-3.386v-.8h9.674a.803.803 0 0 0 .184 0h.774l-.008.8Z"/><path d="M15.604 4.901a.88.88 0 0 0-.88.88v8.284a.88.88 0 0 0 1.76 0V5.781a.88.88 0 0 0-.88-.88Zm2.726 0a.88.88 0 0 0-.88.88v8.284a.88.88 0 0 0 1.76 0V5.781a.88.88 0 0 0-.88-.88Zm20.833 2.014A6.852 6.852 0 0 0 33.95.258a.88.88 0 0 0-1.082.985l.633 4.16a1.667 1.667 0 1 1-3.298.492l-.59-3.922a.879.879 0 0 0-1.389-.572 6.85 6.85 0 0 0 .255 11.222v21.871a6.86 6.86 0 0 0 2.12 12.313.907.907 0 0 0 .22 0 .88.88 0 0 0 .88-1.012l-.66-4.397a1.663 1.663 0 1 1 3.289-.501l.633 4.186a.88.88 0 0 0 1.39.58 6.86 6.86 0 0 0-.212-11.247V12.614a6.884 6.884 0 0 0 3.026-5.699Zm-4.397 28.837a5.127 5.127 0 0 1 2.639 4.45 5.043 5.043 0 0 1-.976 3.017l-.379-2.49a3.426 3.426 0 0 0-6.771 1.03l.43 2.858a5.1 5.1 0 0 1 .098-8.865.882.882 0 0 0 .448-.765V12.122a.881.881 0 0 0-.448-.765 5.1 5.1 0 0 1-1.654-7.405l.334 2.225a3.424 3.424 0 0 0 6.772-1.02l-.404-2.639a5.1 5.1 0 0 1 0 8.874.881.881 0 0 0-.45.765v22.865c.004.296.157.57.405.73h-.044Z"/></g><defs><clipPath id="a"><path fill="#fff" transform="translate(.5)" d="M0 0h48v48H0z"/></clipPath></defs></svg>