<svg width="48" height="48" fill="none" xmlns="http://www.w3.org/2000/svg"><g clip-path="url(#a)" fill="#131D3B"><path d="M24.053 21.806a4.573 4.573 0 1 0-.009 0h.01Zm0-7.39a2.808 2.808 0 1 1 0 5.616 2.808 2.808 0 0 1 0-5.615Z"/><path d="M41.886 43.418a3.407 3.407 0 0 0 .397-4.176L31.69 22.53a9.322 9.322 0 0 0-4.582-14.125V.883A.883.883 0 0 0 26.225 0h-4.414a.883.883 0 0 0-.883.883V8.43a9.314 9.314 0 0 0-4.582 14.125L5.752 39.251a3.408 3.408 0 0 0 .468 4.167L4.198 46.63a.883.883 0 1 0 1.492.945l2.022-3.205c1.5.493 3.143-.1 3.982-1.439l4.652-7.46h7.063v1.59a.883.883 0 0 0 1.765 0v-1.59h6.595l4.644 7.46a3.433 3.433 0 0 0 3.946 1.448l2.022 3.205a.883.883 0 0 0 1.492-.945l-1.987-3.222ZM22.72 1.766h2.649v6.232a8.442 8.442 0 0 0-2.649 0V1.766Zm1.333 7.892a7.574 7.574 0 0 1 7.575 7.575 7.574 7.574 0 0 1-7.575 7.575 7.574 7.574 0 0 1-7.575-7.575 7.584 7.584 0 0 1 7.575-7.575Zm-13.887 32.33a1.687 1.687 0 0 1-2.851-1.766l10.25-16.227a9.364 9.364 0 0 0 2.798 1.872l-10.197 16.12Zm15.008-8.255v-1.792a.883.883 0 0 0-1.765 0v1.766h-5.95l4.652-7.363a9.265 9.265 0 0 0 3.884 0l4.653 7.363-5.474.026Zm15.83 7.725a1.686 1.686 0 0 1-3.064.53L27.735 25.813a9.366 9.366 0 0 0 2.798-1.872l10.294 16.245c.226.383.29.841.176 1.271Z"/></g><defs><clipPath id="a"><path fill="#fff" d="M0 0h48v48H0z"/></clipPath></defs></svg>