<svg width="257" height="55" fill="none" xmlns="http://www.w3.org/2000/svg"><g clip-path="url(#a)"><path d="M55.322 27.483c0 5.34-1.623 10.56-4.662 15-3.04 4.44-7.359 7.9-12.413 9.943a28.288 28.288 0 0 1-15.981 1.537c-5.365-1.042-10.294-3.614-14.162-7.39C4.235 42.799 1.6 37.988.534 32.75a26.4 26.4 0 0 1 1.574-15.6C4.2 12.218 7.747 8 12.295 5.035A28.144 28.144 0 0 1 27.662.484c7.336 0 14.371 2.844 19.558 7.908 5.188 5.063 8.102 11.93 8.102 19.09Z" fill="#ED1C24"/><path d="M28.652 33.192H18.516a.036.036 0 0 0-.025.01.034.034 0 0 0-.01.025v10.02c0 .397.16.777.448 1.057.287.28.677.438 1.083.438h7.157a1.55 1.55 0 0 0 1.083-.438c.287-.28.449-.66.449-1.056V33.227a.034.034 0 0 0-.01-.025.036.036 0 0 0-.026-.01" fill="#E5BDBF"/><path d="M42.932 21.53c-.102-6.34-5.688-11.297-12.182-11.297H18.516a.036.036 0 0 0-.024.01.034.034 0 0 0-.012.023v25.88c0-2.762 1.368-2.944 1.634-2.952h11.054a12 12 0 0 0 4.544-.892 11.78 11.78 0 0 0 3.839-2.536 11.458 11.458 0 0 0 2.536-3.787 11.24 11.24 0 0 0 .84-4.45" fill="#fff"/><path d="M65.902 38.926h3.126v2.1h-3.126v3.55h3.636v2.099h-6.022v-13.17h6.022v2.118h-3.636v3.303Zm12.57 7.749h-2.404l-2.814-7.024v7.024h-2.407v-13.17h2.407l2.814 7.329v-7.328h2.404v13.169Zm1.567-3.629V37.11c0-1.247.358-2.192 1.074-2.835.717-.642 1.662-.964 2.835-.964 1.122 0 2.028.313 2.718.937.69.624 1.036 1.547 1.036 2.767v.401h-2.404v-.4a1.636 1.636 0 0 0-.39-1.174 1.328 1.328 0 0 0-1.02-.411 1.243 1.243 0 0 0-.625.112c-.194.09-.36.23-.48.404a2.818 2.818 0 0 0-.343 1.546v5.286c0 1.285.483 1.928 1.447 1.928.202.013.404-.023.589-.104a1.22 1.22 0 0 0 .468-.364 2.2 2.2 0 0 0 .352-1.345V41.5h-1.427v-1.85h3.828v3.397c0 1.222-.361 2.157-1.084 2.805a4.043 4.043 0 0 1-2.807.974c-1.16 0-2.08-.322-2.756-.964-.677-.643-1.018-1.581-1.021-2.815m11.7-9.541h-2.386v13.169h2.386v-13.17Zm9.347 13.169H98.67l-2.815-7.024v7.024H93.45v-13.17h2.406l2.815 7.329v-7.328h2.406v13.169Zm4.027-7.749h3.129v2.1h-3.129v3.55h3.637v2.099h-6.023v-13.17h6.023v2.118h-3.637v3.303Zm7.332 0h3.128v2.1h-3.128v3.55h3.639v2.099h-6.023v-13.17h6.023v2.118h-3.639v3.303Zm8.605.361c.481 0 .814-.156.997-.468a3.664 3.664 0 0 0 0-2.758c-.17-.305-.506-.458-1.008-.458h-1.25v3.684h1.261Zm-1.251 2.1v5.276h-2.406v-13.16h3.677c1.33 0 2.272.312 2.825.934.553.623.83 1.62.832 2.99a5.658 5.658 0 0 1-.373 2.194 2.575 2.575 0 0 1-1.212 1.317l2.014 5.73h-2.514l-1.702-5.289-1.141.008Zm9.052-7.881h-2.386v13.169h2.386v-13.17Zm9.345 13.169h-2.404l-2.815-7.024v7.024h-2.406v-13.17h2.406l2.815 7.329v-7.328h2.404v13.169Zm1.566-3.629V37.11c0-1.247.358-2.192 1.075-2.835.716-.642 1.661-.964 2.835-.964 1.121 0 2.027.313 2.717.937.691.624 1.037 1.547 1.037 2.767v.401h-2.404v-.4a1.634 1.634 0 0 0-.391-1.174 1.329 1.329 0 0 0-1.021-.411 1.241 1.241 0 0 0-.623.112c-.194.09-.36.23-.481.404a2.814 2.814 0 0 0-.342 1.546v5.286c0 1.285.482 1.928 1.446 1.928a1.25 1.25 0 0 0 .589-.104 1.23 1.23 0 0 0 .468-.364c.26-.4.383-.872.352-1.345V41.5h-1.429v-1.85h3.828v3.397c0 1.222-.362 2.157-1.085 2.805a4.041 4.041 0 0 1-2.807.974c-1.16 0-2.079-.322-2.756-.964-.677-.643-1.017-1.581-1.02-2.815m15.517-6.948c.009.271.065.539.166.792.17.414.375.813.615 1.193.297-.309.544-.66.733-1.041.126-.3.19-.62.186-.944a1.182 1.182 0 0 0-.225-.782.767.767 0 0 0-.615-.267.779.779 0 0 0-.635.277 1.202 1.202 0 0 0-.225.772Zm1.858 7.749-1.505-2.404a4.698 4.698 0 0 0-.791 1.116 2.357 2.357 0 0 0-.225.996c-.023.335.077.666.283.934a.97.97 0 0 0 .766.324c.257.002.509-.071.724-.209.292-.21.543-.468.743-.762l.005.005Zm3.514.892h.235v1.922h-.939a1.779 1.779 0 0 1-.988-.229 3.031 3.031 0 0 1-.753-.859c-.32.423-.744.761-1.232.984a3.963 3.963 0 0 1-1.585.296 3.017 3.017 0 0 1-1.195-.193 2.966 2.966 0 0 1-1.015-.646 3.056 3.056 0 0 1-.653-1.038 2.998 2.998 0 0 1-.186-1.204 4.204 4.204 0 0 1 .51-1.955 9.905 9.905 0 0 1 1.672-2.185 16.425 16.425 0 0 1-1.085-1.955 3.673 3.673 0 0 1-.322-1.48 2.761 2.761 0 0 1 .84-2.1 3.365 3.365 0 0 1 2.181-.797c.801 0 1.576.283 2.18.797a2.8 2.8 0 0 1 .647.964c.145.361.212.748.195 1.136a3.74 3.74 0 0 1-.449 1.719c-.404.73-.911 1.4-1.505 1.993l1.191 1.948.901-1.413 1.623 1.089-1.416 2.14.352.572c.081.152.198.283.342.381a.86.86 0 0 0 .459.115m4.67-1.676V37.13c0-1.247.358-2.192 1.074-2.835.717-.642 1.662-.964 2.836-.964a3.86 3.86 0 0 1 2.717.954c.691.636 1.036 1.604 1.036 2.902v.401h-2.404v-.39c0-.599-.126-1.041-.38-1.329a1.285 1.285 0 0 0-.46-.327 1.32 1.32 0 0 0-.561-.101 1.241 1.241 0 0 0-.623.112c-.194.09-.36.23-.481.404a2.813 2.813 0 0 0-.342 1.546v5.289c0 1.285.482 1.928 1.446 1.928a1.28 1.28 0 0 0 1.021-.438 1.93 1.93 0 0 0 .38-1.299v-.343h2.386v.363c0 1.272-.361 2.23-1.084 2.872a4.042 4.042 0 0 1-2.787.964c-1.16 0-2.079-.321-2.756-.964-.677-.642-1.017-1.58-1.02-2.814m14.412-.261v-5.29a2.757 2.757 0 0 0-.352-1.537 1.17 1.17 0 0 0-.455-.402 1.204 1.204 0 0 0-.601-.123 1.243 1.243 0 0 0-.624.112c-.194.09-.36.23-.481.403a2.822 2.822 0 0 0-.342 1.547v5.288c0 1.285.482 1.928 1.447 1.928a1.195 1.195 0 0 0 1.046-.498c.266-.427.392-.923.362-1.422v-.008Zm-5.259.273V37.13c0-1.247.358-2.192 1.074-2.835.717-.642 1.662-.964 2.836-.964 1.134 0 2.044.322 2.727.964.684.643 1.025 1.588 1.021 2.835v5.936c0 1.22-.361 2.155-1.084 2.804a4.045 4.045 0 0 1-2.807.974c-1.161 0-2.08-.321-2.759-.964-.679-.642-1.019-1.58-1.021-2.814m16.866 3.626h-2.404l-2.818-7.021v7.021h-2.403V33.523h2.403l2.818 7.33v-7.33h2.404v13.17Zm5.632-11.049v11.05h-2.386v-11.05h-2.346v-2.12h7.059v2.12h-2.327Zm6.882 3.664c.483 0 .816-.156.998-.468a2.79 2.79 0 0 0 .273-1.383 2.812 2.812 0 0 0-.256-1.375c-.17-.305-.506-.458-1.008-.458h-1.25v3.684h1.243Zm-1.251 2.1v5.288h-2.406V33.523h3.677c1.329 0 2.271.312 2.825.937.555.624.832 1.62.832 2.989a5.64 5.64 0 0 1-.373 2.194 2.572 2.572 0 0 1-1.212 1.318l2.014 5.729h-2.504l-1.702-5.288-1.151.005Zm10.519-4.708-1.143 5.335h2.268L213.09 36.7Zm-1.585 7.443-.548 2.558h-2.504l3.461-13.17h2.347l3.443 13.17H215.2l-.548-2.558h-3.147Zm6.942-1.076V37.13c0-1.247.358-2.192 1.074-2.835.716-.642 1.661-.964 2.835-.964.999-.043 1.976.3 2.718.954.69.636 1.036 1.604 1.036 2.902v.401h-2.404v-.39c0-.599-.127-1.041-.38-1.328a1.318 1.318 0 0 0-1.021-.428 1.243 1.243 0 0 0-.624.111 1.21 1.21 0 0 0-.481.404 2.822 2.822 0 0 0-.342 1.547v5.288c0 1.285.482 1.928 1.447 1.928a1.305 1.305 0 0 0 1.021-.439c.28-.375.415-.835.38-1.297v-.344h2.386v.364c0 1.272-.362 2.229-1.085 2.872a4.038 4.038 0 0 1-2.786.963c-1.161 0-2.08-.32-2.759-.963-.679-.643-1.019-1.581-1.021-2.815m13.224-7.418v11.05h-2.386v-11.05h-2.348v-2.12h7.059v2.12h-2.325Zm5.688-2.12h-2.386v13.17h2.386v-13.17Zm9.348 13.169h-2.407l-2.814-7.021v7.021h-2.407V33.523h2.407l2.814 7.33v-7.33h2.407v13.17Zm1.564-3.626V37.13c0-1.247.358-2.192 1.075-2.835.716-.642 1.661-.964 2.835-.964 1.121 0 2.027.311 2.717.934.691.623 1.037 1.545 1.037 2.768v.413h-2.407v-.4a1.637 1.637 0 0 0-.39-1.174 1.33 1.33 0 0 0-1.021-.411 1.245 1.245 0 0 0-.624.112c-.194.09-.36.23-.481.404a2.822 2.822 0 0 0-.342 1.546v5.288c0 1.286.482 1.928 1.447 1.928a1.241 1.241 0 0 0 1.056-.468c.261-.4.384-.871.353-1.345v-1.392h-1.427v-1.851h3.828v3.398c0 1.22-.362 2.155-1.085 2.804a4.041 4.041 0 0 1-2.807.974c-1.16 0-2.079-.321-2.758-.964-.679-.642-1.019-1.58-1.021-2.815" fill="#A5A7AA"/><path d="M73.636 20.329a3.938 3.938 0 0 0 2.723-.997c.364-.328.651-.729.842-1.175a3.3 3.3 0 0 0 .263-1.41 2.988 2.988 0 0 0-.266-1.357 3.06 3.06 0 0 0-.851-1.104 4.146 4.146 0 0 0-2.71-.924H69.42v6.94l4.215.027Zm.23-11.864c2.866 0 5.104.747 6.737 2.266 1.633 1.52 2.437 3.525 2.437 6.043 0 2.518-.832 4.561-2.493 6.128-1.661 1.567-3.874 2.339-6.655 2.339h-4.443v4.503h-5.933V8.492l10.35-.027Zm21.066 11.864a3.94 3.94 0 0 0 2.722-.997c.365-.325.653-.724.846-1.168a3.28 3.28 0 0 0 .272-1.405 2.988 2.988 0 0 0-.265-1.358 3.059 3.059 0 0 0-.853-1.105 4.145 4.145 0 0 0-2.722-.924h-4.213v6.94l4.213.017Zm3.355 9.395-3.725-4.498h-3.843v4.498h-5.934V8.464h10.376c2.866 0 5.104.748 6.737 2.267 1.633 1.52 2.437 3.525 2.437 6.04a8.721 8.721 0 0 1-1.003 4.17 7.563 7.563 0 0 1-2.807 2.937l5.16 5.876-7.398-.03Zm19.262-4.694a5.663 5.663 0 0 0 2.246-.416 5.546 5.546 0 0 0 1.883-1.264 5.744 5.744 0 0 0 1.278-1.917 5.649 5.649 0 0 0 .414-2.253 5.74 5.74 0 0 0-.402-2.26 5.849 5.849 0 0 0-1.262-1.937 5.757 5.757 0 0 0-1.886-1.262 5.876 5.876 0 0 0-4.483 0 5.747 5.747 0 0 0-1.886 1.262 5.864 5.864 0 0 0-1.276 1.934c-.29.72-.432 1.49-.416 2.263-.019.77.121 1.536.411 2.252a5.741 5.741 0 0 0 1.275 1.918 5.554 5.554 0 0 0 1.882 1.264c.711.29 1.475.43 2.245.415h-.023Zm8.342-13.7a10.83 10.83 0 0 1 2.544 3.572 10.597 10.597 0 0 1 0 8.524A10.832 10.832 0 0 1 125.891 27a12.375 12.375 0 0 1-8.313 3.19 12.37 12.37 0 0 1-8.312-3.19 10.817 10.817 0 0 1-2.544-3.573 10.603 10.603 0 0 1-.896-4.262c0-1.465.305-2.915.896-4.262a10.816 10.816 0 0 1 2.544-3.573c2.296-2.154 5.073-3.218 8.313-3.218 3.241 0 6.02 1.064 8.314 3.218m22.985 8.914c-.028 3.049-.86 5.48-2.608 7.303-1.748 1.824-4.083 2.715-6.967 2.715-2.407 0-4.442-.615-6.106-1.845a8.823 8.823 0 0 1-3.318-5.092l5.704-1.903c.201 1.091.63 1.93 1.288 2.519a3.597 3.597 0 0 0 2.466.896 3.182 3.182 0 0 0 1.483-.32c.46-.225.856-.558 1.153-.968.658-.866 1.003-2.07 1.003-3.609v-6.523h-9.003V8.492h14.964l-.059 11.752Zm18.718 9.516h-16.712V8.494h16.541v4.924h-10.608v3.16h10.406v4.925h-10.406v3.33h10.779v4.925Zm12.095-7.053-4.871 7.052h-6.824l7.311-10.633-7.053-10.631h6.852l4.585 6.937 4.589-6.937h6.849l-7.079 10.63 7.337 10.634h-6.85l-4.846-7.052Zm29.64-9.317v16.37h-5.933V13.39h-6.336V8.494h18.634v4.894h-6.365Zm24.25 16.37h-16.712V8.494h16.539v4.924h-10.606v3.16h10.407v4.925h-10.407v3.33h10.779v4.925Zm12.385-4.676a5.321 5.321 0 0 0 3.496-1.23 5.423 5.423 0 0 0 1.863-3.274L257 22.205a10.479 10.479 0 0 1-4.042 5.848 11.673 11.673 0 0 1-7.051 2.242c-3.238 0-5.961-1.064-8.199-3.191-2.238-2.127-3.353-4.758-3.353-7.864s1.117-5.729 3.353-7.86c2.235-2.133 4.958-3.192 8.199-3.192 2.667 0 5.017.728 7.023 2.21a10.536 10.536 0 0 1 4.014 5.791l-5.676 1.679a5.644 5.644 0 0 0-1.862-3.33 5.204 5.204 0 0 0-3.496-1.258 5.3 5.3 0 0 0-2.181.413 5.185 5.185 0 0 0-1.803 1.266c-1.061 1.118-1.577 2.518-1.577 4.197a5.875 5.875 0 0 0 1.605 4.197 5.242 5.242 0 0 0 1.82 1.266c.692.29 1.441.43 2.194.413l-.002.052Z" fill="#000"/></g><defs><clipPath id="a"><path fill="#fff" transform="translate(0 .484)" d="M0 0h257v54H0z"/></clipPath></defs></svg>