<svg width="257" height="55" viewBox="0 0 257 55" fill="none" xmlns="http://www.w3.org/2000/svg">
<g clip-path="url(#clip0_1_1277)">
<path d="M55.3216 27.4826C55.3216 32.8225 53.6994 38.0424 50.6601 42.4824C47.6209 46.9223 43.301 50.3828 38.2469 52.4262C33.1928 54.4697 27.6313 55.0044 22.2659 53.9626C16.9005 52.9209 11.972 50.3495 8.10375 46.5737C4.23549 42.7978 1.60118 37.9871 0.533926 32.7498C-0.533325 27.5126 0.0144232 22.084 2.10791 17.1507C4.2014 12.2173 7.7466 8.00066 12.2952 5.034C16.8438 2.06734 22.1915 0.483887 27.662 0.483887C34.9978 0.483887 42.0331 3.32839 47.2203 8.39164C52.4075 13.4549 55.3216 20.3221 55.3216 27.4826Z" fill="#ED1C24"/>
<path d="M28.6522 33.1918H18.5162C18.5067 33.1918 18.4976 33.1954 18.4909 33.202C18.4842 33.2085 18.4805 33.2174 18.4805 33.2266V43.2475C18.4805 43.6439 18.6418 44.024 18.9289 44.3043C19.2161 44.5846 19.6055 44.742 20.0116 44.742H27.1695C27.5756 44.742 27.9651 44.5846 28.2522 44.3043C28.5393 44.024 28.7006 43.6439 28.7006 43.2475V33.2266C28.7006 33.2174 28.6969 33.2085 28.6902 33.202C28.6835 33.1954 28.6744 33.1918 28.6649 33.1918" fill="#E5BDBF"/>
<path d="M42.9324 21.5295C42.8303 15.1901 37.2443 10.2333 30.7498 10.2333H18.5162C18.5071 10.2333 18.4984 10.2366 18.4918 10.2426C18.4852 10.2486 18.4811 10.2568 18.4805 10.2657V36.146C18.4805 33.3836 19.8483 33.2018 20.1137 33.1943H31.1683C32.7287 33.1942 34.2734 32.891 35.7125 32.3024C37.1516 31.7138 38.4564 30.8516 39.5508 29.7659C40.6452 28.6803 41.5073 27.393 42.087 25.9789C42.6667 24.5648 42.9523 23.0523 42.9273 21.5295" fill="white"/>
<path d="M65.9019 38.9258H69.0279V41.0256H65.9019V44.5751H69.5383V46.6749H63.5159V33.5056H69.5383V35.6229H65.9019V38.9258Z" fill="#A5A7AA"/>
<path d="M78.4721 46.6749H76.0683L73.2536 39.6506V46.6749H70.8472V33.5056H73.2536L76.0683 40.8338V33.5056H78.4721V46.6749Z" fill="#A5A7AA"/>
<path d="M80.039 43.0457V37.1099C80.039 35.8628 80.3971 34.9179 81.1133 34.2753C81.8296 33.6326 82.7746 33.3113 83.9485 33.3113C85.0696 33.3113 85.9755 33.6235 86.6662 34.2478C87.3569 34.8722 87.7022 35.7947 87.7022 37.0152V37.4163H85.2984V37.0152C85.3273 36.5897 85.1875 36.1697 84.908 35.842C84.7781 35.7059 84.6197 35.5987 84.4436 35.5277C84.2674 35.4568 84.0776 35.4238 83.8872 35.431C83.6728 35.414 83.4576 35.4527 83.2635 35.5433C83.0694 35.6339 82.9033 35.773 82.7823 35.9466C82.5223 36.4209 82.4038 36.9568 82.4403 37.4935V42.7791C82.4403 44.0644 82.9226 44.7071 83.8872 44.7071C84.0892 44.7204 84.2915 44.6845 84.4759 44.6028C84.6602 44.5211 84.821 44.396 84.9437 44.2388C85.2039 43.8381 85.3272 43.3672 85.2958 42.8937V41.5013H83.8693V39.6506H87.6971V43.0482C87.6971 44.2704 87.3356 45.2053 86.6126 45.8529C85.8412 46.5197 84.8351 46.8688 83.8056 46.8268C82.6453 46.8268 81.7266 46.5055 81.0496 45.8629C80.3725 45.2202 80.0322 44.282 80.0288 43.0482" fill="#A5A7AA"/>
<path d="M91.729 33.5056H89.343V46.6749H91.729V33.5056Z" fill="#A5A7AA"/>
<path d="M101.076 46.6749H98.6701L95.8554 39.6506V46.6749H93.449V33.5056H95.8554L98.6701 40.8338V33.5056H101.076V46.6749Z" fill="#A5A7AA"/>
<path d="M105.103 38.9258H108.232V41.0256H105.103V44.5751H108.74V46.6749H102.717V33.5056H108.74V35.6229H105.103V38.9258Z" fill="#A5A7AA"/>
<path d="M112.435 38.9258H115.563V41.0256H112.435V44.5751H116.074V46.6749H110.051V33.5056H116.074V35.6229H112.435V38.9258Z" fill="#A5A7AA"/>
<path d="M121.04 39.287C121.521 39.287 121.854 39.1309 122.037 38.8187C122.396 37.9328 122.396 36.9472 122.037 36.0613C121.867 35.7558 121.531 35.603 121.029 35.603H119.779V39.287H121.04ZM119.789 41.3868V46.6625H117.383V33.5032H121.06C122.39 33.5032 123.332 33.8145 123.885 34.4373C124.438 35.06 124.715 36.0563 124.717 37.4263C124.739 38.1745 124.613 38.9198 124.344 39.6208C124.114 40.1872 123.684 40.6547 123.132 40.9385L125.146 46.6675H122.632L120.93 41.3794L119.789 41.3868Z" fill="#A5A7AA"/>
<path d="M128.841 33.5056H126.455V46.6749H128.841V33.5056Z" fill="#A5A7AA"/>
<path d="M138.186 46.6749H135.782L132.967 39.6506V46.6749H130.561V33.5056H132.967L135.782 40.8338V33.5056H138.186V46.6749Z" fill="#A5A7AA"/>
<path d="M139.752 43.0457V37.1099C139.752 35.8628 140.11 34.9179 140.827 34.2753C141.543 33.6326 142.488 33.3113 143.662 33.3113C144.783 33.3113 145.689 33.6235 146.379 34.2478C147.07 34.8722 147.416 35.7947 147.416 37.0152V37.4163H145.012V37.0152C145.041 36.5897 144.901 36.1697 144.621 35.842C144.491 35.7059 144.333 35.5987 144.157 35.5277C143.981 35.4568 143.791 35.4238 143.6 35.431C143.386 35.414 143.171 35.4527 142.977 35.5433C142.783 35.6339 142.617 35.773 142.496 35.9466C142.236 36.4209 142.117 36.9568 142.154 37.4935V42.7791C142.154 44.0644 142.636 44.7071 143.6 44.7071C143.803 44.7204 144.005 44.6845 144.189 44.6028C144.373 44.5211 144.534 44.396 144.657 44.2388C144.917 43.8381 145.04 43.3672 145.009 42.8937V41.5013H143.58V39.6506H147.408V43.0482C147.408 44.2704 147.046 45.2053 146.323 45.8529C145.552 46.5197 144.546 46.8688 143.516 46.8268C142.356 46.8268 141.437 46.5055 140.76 45.8629C140.083 45.2202 139.743 44.282 139.74 43.0482" fill="#A5A7AA"/>
<path d="M155.257 36.0987C155.266 36.37 155.322 36.6379 155.423 36.8908C155.593 37.3051 155.798 37.7043 156.038 38.0839C156.335 37.775 156.582 37.424 156.771 37.0427C156.897 36.7434 156.961 36.4224 156.957 36.0987C156.977 35.8205 156.898 35.5441 156.732 35.3165C156.657 35.2293 156.563 35.16 156.457 35.1138C156.35 35.0676 156.234 35.0458 156.117 35.05C155.997 35.0438 155.876 35.0656 155.766 35.1137C155.655 35.1618 155.558 35.2347 155.482 35.3265C155.32 35.5516 155.241 35.8239 155.257 36.0987ZM157.115 43.8478L155.61 41.4441C155.292 41.777 155.026 42.1529 154.819 42.56C154.672 42.8727 154.595 43.2124 154.594 43.5564C154.571 43.8908 154.671 44.2221 154.877 44.4905C154.972 44.5971 155.09 44.6815 155.222 44.7376C155.355 44.7936 155.498 44.8199 155.643 44.8143C155.9 44.8157 156.152 44.7429 156.367 44.605C156.659 44.3953 156.91 44.1373 157.11 43.8428L157.115 43.8478ZM160.629 44.7395H160.864V46.6625H159.925C159.58 46.6835 159.236 46.6037 158.937 46.4333C158.633 46.196 158.377 45.9044 158.184 45.574C157.864 45.997 157.44 46.3353 156.952 46.5579C156.451 46.764 155.911 46.865 155.367 46.8543C154.959 46.8711 154.552 46.8051 154.172 46.6607C153.792 46.5162 153.446 46.2963 153.157 46.0149C152.871 45.7152 152.648 45.3623 152.504 44.9772C152.36 44.5921 152.297 44.1826 152.318 43.7731C152.326 43.091 152.501 42.4208 152.828 41.8177C153.279 41.0177 153.842 40.2826 154.5 39.6332C154.094 39.0058 153.731 38.3525 153.415 37.6779C153.206 37.2112 153.096 36.7077 153.093 36.1983C153.077 35.8106 153.143 35.4238 153.287 35.0623C153.432 34.7009 153.652 34.3727 153.933 34.0985C154.537 33.5841 155.312 33.3007 156.114 33.3007C156.915 33.3007 157.69 33.5841 158.294 34.0985C158.576 34.3724 158.796 34.7006 158.941 35.062C159.086 35.4235 159.153 35.8104 159.136 36.1983C159.127 36.7976 158.973 37.3863 158.687 37.917C158.283 38.6463 157.776 39.317 157.182 39.9097L158.373 41.8576L159.274 40.4452L160.897 41.5338L159.481 43.6734L159.833 44.2463C159.914 44.3985 160.031 44.5292 160.175 44.6275C160.314 44.7077 160.473 44.7474 160.634 44.742" fill="#A5A7AA"/>
<path d="M165.304 43.0656V37.1298C165.304 35.8827 165.662 34.9378 166.378 34.2952C167.095 33.6525 168.04 33.3312 169.214 33.3312C170.213 33.2877 171.189 33.6305 171.931 34.2852C172.622 34.9212 172.967 35.8885 172.967 37.1871V37.5881H170.563V37.1971C170.563 36.5993 170.437 36.1567 170.183 35.8694C170.057 35.7282 169.899 35.6164 169.723 35.5423C169.546 35.4682 169.355 35.4336 169.162 35.441C168.948 35.424 168.733 35.4627 168.539 35.5533C168.345 35.6439 168.179 35.783 168.058 35.9566C167.798 36.4308 167.679 36.9668 167.716 37.5034V42.7916C167.716 44.0769 168.198 44.7196 169.162 44.7196C169.356 44.7267 169.548 44.6909 169.725 44.615C169.901 44.539 170.058 44.4249 170.183 44.2812C170.463 43.9062 170.598 43.4463 170.563 42.9834V42.6397H172.949V43.0033C172.949 44.2754 172.588 45.2327 171.865 45.8753C171.097 46.5339 170.099 46.8791 169.078 46.8393C167.918 46.8393 166.999 46.518 166.322 45.8753C165.645 45.2327 165.305 44.2944 165.302 43.0606" fill="#A5A7AA"/>
<path d="M179.714 42.7992V37.511C179.749 36.9765 179.627 36.4434 179.362 35.9741C179.25 35.8033 179.092 35.6646 178.907 35.5723C178.721 35.4799 178.514 35.4373 178.306 35.4486C178.091 35.4315 177.876 35.4703 177.682 35.5608C177.488 35.6514 177.322 35.7906 177.201 35.9642C176.941 36.4384 176.823 36.9743 176.859 37.511V42.7992C176.859 44.0845 177.341 44.7271 178.306 44.7271C178.509 44.7379 178.712 44.6977 178.895 44.6106C179.078 44.5234 179.236 44.392 179.352 44.2289C179.618 43.8018 179.744 43.3057 179.714 42.8066V42.7992ZM174.455 43.0732V37.1299C174.455 35.8828 174.813 34.9379 175.529 34.2953C176.246 33.6526 177.191 33.3313 178.365 33.3313C179.499 33.3313 180.409 33.6526 181.092 34.2953C181.776 34.9379 182.117 35.8828 182.113 37.1299V43.0657C182.113 44.2862 181.752 45.2211 181.029 45.8704C180.257 46.5372 179.251 46.8863 178.222 46.8444C177.061 46.8444 176.142 46.523 175.463 45.8804C174.784 45.2377 174.444 44.2995 174.442 43.0657" fill="#A5A7AA"/>
<path d="M191.308 46.6924H188.904L186.086 39.6706V46.6924H183.683V33.5231H186.086L188.904 40.8538V33.5231H191.308V46.6924Z" fill="#A5A7AA"/>
<path d="M196.94 35.6428V46.6924H194.554V35.6428H192.208V33.5231H199.267V35.6428H196.94Z" fill="#A5A7AA"/>
<path d="M203.822 39.3069C204.305 39.3069 204.638 39.1508 204.82 38.8386C205.028 38.4074 205.122 37.932 205.093 37.4562C205.125 36.9844 205.037 36.5121 204.837 36.0812C204.667 35.7757 204.331 35.6229 203.829 35.6229H202.579V39.3069H203.822ZM202.571 41.4067V46.6949H200.165V33.5231H203.842C205.171 33.5231 206.113 33.8353 206.667 34.4596C207.222 35.084 207.499 36.0804 207.499 37.4487C207.522 38.1969 207.395 38.9421 207.126 39.6432C206.896 40.2095 206.467 40.6769 205.914 40.9609L207.928 46.6899H205.424L203.722 41.4018L202.571 41.4067Z" fill="#A5A7AA"/>
<path d="M213.09 36.6989L211.947 42.0344H214.215L213.09 36.6989ZM211.505 44.1417L210.957 46.6999H208.453L211.914 33.5305H214.261L217.704 46.6999H215.2L214.652 44.1417H211.505Z" fill="#A5A7AA"/>
<path d="M218.447 43.0657V37.1299C218.447 35.8828 218.805 34.938 219.521 34.2953C220.237 33.6527 221.182 33.3313 222.356 33.3313C223.355 33.2878 224.332 33.6306 225.074 34.2853C225.764 34.9214 226.11 35.8887 226.11 37.1872V37.5883H223.706V37.1972C223.706 36.5994 223.579 36.1568 223.326 35.8695C223.199 35.7283 223.042 35.6166 222.865 35.5424C222.688 35.4683 222.497 35.4337 222.305 35.4411C222.09 35.4241 221.875 35.4628 221.681 35.5534C221.487 35.644 221.321 35.7831 221.2 35.9567C220.94 36.431 220.822 36.9669 220.858 37.5036V42.7917C220.858 44.077 221.34 44.7197 222.305 44.7197C222.498 44.7268 222.69 44.691 222.867 44.6151C223.044 44.5392 223.201 44.425 223.326 44.2813C223.606 43.9063 223.741 43.4464 223.706 42.9835V42.6398H226.092V43.0035C226.092 44.2755 225.73 45.2328 225.007 45.8755C224.24 46.534 223.242 46.8792 222.221 46.8394C221.06 46.8394 220.141 46.5181 219.462 45.8755C218.783 45.2328 218.443 44.2946 218.441 43.0607" fill="#A5A7AA"/>
<path d="M231.665 35.6428V46.6924H229.279V35.6428H226.931V33.5231H233.99V35.6428H231.665Z" fill="#A5A7AA"/>
<path d="M237.353 33.5231H234.967V46.6924H237.353V33.5231Z" fill="#A5A7AA"/>
<path d="M246.701 46.6924H244.294L241.48 39.6706V46.6924H239.073V33.5231H241.48L244.294 40.8538V33.5231H246.701V46.6924Z" fill="#A5A7AA"/>
<path d="M248.265 43.0656V37.1298C248.265 35.8827 248.623 34.9378 249.34 34.2951C250.056 33.6525 251.001 33.3312 252.175 33.3312C253.296 33.3312 254.202 33.6425 254.892 34.2653C255.583 34.888 255.929 35.8105 255.929 37.0327V37.4461H253.522V37.0451C253.551 36.6196 253.411 36.1996 253.132 35.8719C253.002 35.7357 252.843 35.6285 252.667 35.5576C252.491 35.4867 252.301 35.4537 252.111 35.4609C251.897 35.4439 251.681 35.4826 251.487 35.5732C251.293 35.6637 251.127 35.8029 251.006 35.9765C250.746 36.4508 250.628 36.9867 250.664 37.5233V42.8115C250.664 44.0968 251.146 44.7395 252.111 44.7395C252.313 44.7527 252.515 44.7169 252.7 44.6352C252.884 44.5534 253.045 44.4284 253.167 44.2712C253.428 43.8705 253.551 43.3995 253.52 42.9261V41.5337H252.093V39.6829H255.921V43.0805C255.921 44.3011 255.559 45.236 254.836 45.8853C254.065 46.5521 253.059 46.9012 252.029 46.8592C250.869 46.8592 249.95 46.5379 249.271 45.8952C248.592 45.2526 248.252 44.3143 248.25 43.0805" fill="#A5A7AA"/>
<path d="M73.6365 20.3287C74.6421 20.3533 75.6182 19.9961 76.3593 19.3323C76.7231 19.0042 77.0101 18.6034 77.2008 18.1572C77.3915 17.7111 77.4814 17.23 77.4643 16.7468C77.4832 16.2805 77.3923 15.8161 77.1985 15.3895C77.0047 14.9628 76.7133 14.5853 76.3466 14.2858C75.5876 13.6677 74.6247 13.3394 73.6365 13.3617H69.4209V20.3013L73.6365 20.3287ZM73.8662 8.4646C76.7319 8.4646 78.9699 9.21187 80.6031 10.7313C82.2363 12.2508 83.0401 14.2559 83.0401 16.7742C83.0401 19.2925 82.2082 21.335 80.547 22.9018C78.8857 24.4686 76.6732 25.2407 73.8917 25.2407H69.4489V29.7443H63.5159V8.492L73.8662 8.4646Z" fill="black"/>
<path d="M94.9316 20.3287C95.9371 20.3533 96.9132 19.9961 97.6544 19.3324C98.0188 19.0068 98.3073 18.6085 98.5001 18.1645C98.693 17.7206 98.7857 17.2413 98.7721 16.7593C98.7914 16.2925 98.7007 15.8277 98.5069 15.4006C98.3131 14.9735 98.0215 14.5955 97.6544 14.2958C96.8921 13.6748 95.9241 13.3463 94.9316 13.3717H90.7185V20.3113L94.9316 20.3287ZM98.2873 29.7244L94.5616 25.2258H90.7185V29.7244H84.7854V8.4646H95.1612C98.027 8.4646 100.265 9.21187 101.898 10.7313C103.531 12.2508 104.335 14.2559 104.335 16.7717C104.354 18.2206 104.009 19.652 103.332 20.9415C102.688 22.1517 101.717 23.1671 100.525 23.8782L105.685 29.7542L98.2873 29.7244Z" fill="black"/>
<path d="M117.549 25.0291C118.319 25.0447 119.084 24.9035 119.795 24.6145C120.506 24.3254 121.147 23.8948 121.678 23.3502C122.231 22.8008 122.666 22.1488 122.956 21.4326C123.247 20.7164 123.387 19.9506 123.37 19.1805C123.39 18.4083 123.253 17.6399 122.968 16.9195C122.682 16.1991 122.253 15.5411 121.706 14.9833C121.17 14.4435 120.529 14.0142 119.82 13.721C119.11 13.4279 118.348 13.2768 117.578 13.2768C116.808 13.2768 116.046 13.4279 115.337 13.721C114.628 14.0142 113.986 14.4435 113.451 14.9833C112.899 15.5396 112.466 16.1968 112.175 16.9171C111.885 17.6374 111.743 18.4066 111.759 19.1805C111.74 19.9503 111.88 20.7159 112.17 21.4321C112.459 22.1482 112.893 22.8005 113.445 23.3502C113.976 23.8946 114.617 24.3251 115.327 24.6142C116.038 24.9032 116.802 25.0445 117.572 25.0291H117.549ZM125.891 11.3292C126.978 12.3398 127.843 13.5553 128.435 14.9022C129.026 16.249 129.331 17.699 129.331 19.1643C129.331 20.6296 129.026 22.0796 128.435 23.4264C127.843 24.7732 126.978 25.9888 125.891 26.9994C123.632 29.0492 120.662 30.1887 117.578 30.1887C114.494 30.1887 111.524 29.0492 109.266 26.9994C108.179 25.9888 107.313 24.7732 106.722 23.4264C106.131 22.0796 105.826 20.6296 105.826 19.1643C105.826 17.699 106.131 16.249 106.722 14.9022C107.313 13.5553 108.179 12.3398 109.266 11.3292C111.562 9.17457 114.339 8.11096 117.579 8.11096C120.82 8.11096 123.599 9.17457 125.893 11.3292" fill="black"/>
<path d="M148.878 20.2441C148.85 23.2929 148.018 25.724 146.27 27.5474C144.522 29.3707 142.187 30.2624 139.303 30.2624C136.896 30.2624 134.861 29.6472 133.197 28.4167C131.514 27.1517 130.339 25.3496 129.879 23.3253L135.583 21.4223C135.784 22.5133 136.213 23.3527 136.871 23.9406C137.545 24.5371 138.427 24.8581 139.337 24.8373C139.851 24.8513 140.36 24.741 140.82 24.5163C141.28 24.2916 141.676 23.9595 141.973 23.5495C142.631 22.6827 142.976 21.4796 142.976 19.9402V13.4166H133.973V8.49207H148.937L148.878 20.2441Z" fill="black"/>
<path d="M167.596 29.7592H150.884V8.49451H167.425V13.419H156.817V16.5799H167.223V21.5044H156.817V24.8348H167.596V29.7592Z" fill="black"/>
<path d="M179.691 22.7075L174.82 29.7592H167.996L175.307 19.1256L168.254 8.49451H175.106L179.691 15.4316L184.28 8.49451H191.129L184.05 19.1256L191.387 29.7592H184.537L179.691 22.7075Z" fill="black"/>
<path d="M209.331 13.3891V29.7592H203.398V13.3891H197.062V8.49451H215.696V13.3891H209.331Z" fill="black"/>
<path d="M233.581 29.7592H216.869V8.49451H233.408V13.419H222.802V16.5799H233.209V21.5044H222.802V24.8348H233.581V29.7592Z" fill="black"/>
<path d="M245.966 25.0839C247.246 25.1043 248.489 24.6666 249.462 23.8534C250.459 23.0111 251.119 21.8518 251.325 20.5804L257 22.2045C256.385 24.5513 254.957 26.618 252.958 28.0531C250.926 29.5409 248.447 30.3293 245.907 30.2949C242.669 30.2949 239.946 29.2313 237.708 27.104C235.47 24.9768 234.355 22.3464 234.355 19.2403C234.355 16.1342 235.472 13.5113 237.708 11.3791C239.943 9.24686 242.666 8.18823 245.907 8.18823C248.574 8.18823 250.924 8.91557 252.93 10.3977C254.904 11.8261 256.32 13.869 256.944 16.189L251.268 17.8678C251.057 16.5822 250.399 15.4066 249.406 14.5375C248.443 13.7051 247.195 13.2561 245.91 13.2796C245.161 13.262 244.417 13.403 243.729 13.6928C243.042 13.9826 242.426 14.4144 241.926 14.9585C240.865 16.0769 240.349 17.4768 240.349 19.1556C240.304 20.7053 240.88 22.2111 241.954 23.3528C242.46 23.8976 243.081 24.3295 243.774 24.6192C244.466 24.9089 245.215 25.0496 245.968 25.0316L245.966 25.0839Z" fill="black"/>
</g>
<defs>
<clipPath id="clip0_1_1277">
<rect width="257" height="54" fill="white" transform="translate(0 0.483887)"/>
</clipPath>
</defs>
</svg>
