<svg width="172" height="106" viewBox="0 0 172 106" fill="none" xmlns="http://www.w3.org/2000/svg">
<path fill-rule="evenodd" clip-rule="evenodd" d="M24.4856 85.1895C24.3379 85.2492 24.2168 85.53 24.2168 85.8134C24.2168 86.4165 24.5387 86.5242 26.5819 86.6046L27.9794 86.6597L28.0869 89.7773L28.1944 92.8949L28.7504 92.9596C29.0562 92.9951 29.4161 92.8918 29.55 92.7304C29.6978 92.5524 29.8177 91.2972 29.8543 89.5481L29.9145 86.6597L31.5049 86.5522C33.2436 86.4346 33.816 86.0553 33.2621 85.3877C33.0213 85.0974 32.3709 85.0497 28.867 85.0641C26.6049 85.0733 24.6335 85.1299 24.4856 85.1895ZM35.0101 85.3051C34.7382 85.5771 34.6268 91.9957 34.8826 92.6622C35.0364 93.063 35.8457 93.1129 36.2142 92.7444C36.3561 92.6024 36.4722 91.9445 36.4722 91.2823C36.4722 90.6201 36.5883 89.9622 36.7302 89.8203C36.8998 89.6506 37.8052 89.5623 39.3748 89.5623C40.9443 89.5623 41.8497 89.6506 42.0194 89.8203C42.1613 89.9622 42.2774 90.6276 42.2774 91.2991C42.2774 92.642 42.5721 93.0817 43.3943 92.9652L43.8899 92.8949V89.0247V85.1546L43.3339 85.0899C42.5713 85.0013 42.3146 85.3952 42.2365 86.7736L42.1699 87.9497H39.3748H36.5797L36.513 86.7736C36.4765 86.1269 36.3436 85.4737 36.218 85.3223C35.9306 84.9762 35.3475 84.9678 35.0101 85.3051ZM46.7387 85.2793C46.4055 85.4735 46.3625 85.8867 46.3625 88.8869C46.3625 91.2636 46.4429 92.3853 46.6321 92.6437C46.8727 92.9729 47.3285 93.0062 50.8785 92.9538L54.8552 92.8949L54.9277 92.3816C54.9677 92.0993 54.8709 91.7865 54.7127 91.6861C54.5547 91.5859 53.0483 91.5025 51.3655 91.5005C48.3139 91.4973 48.3055 91.496 48.1758 90.9798C48.1045 90.6951 48.1544 90.2597 48.2868 90.0123C48.5037 89.6072 48.7192 89.5623 50.4476 89.5623C52.1245 89.5623 52.3956 89.5098 52.5897 89.1471C53.0126 88.3569 52.3612 88.0572 50.2214 88.0572C48.3691 88.0572 48.3014 88.0398 48.1739 87.532C48.1015 87.243 48.1053 86.9043 48.1825 86.7794C48.2698 86.6382 49.4093 86.5522 51.1952 86.5522C52.7751 86.5522 54.2205 86.4935 54.4076 86.4217C54.5947 86.3498 54.7477 86.0699 54.7477 85.7996C54.7477 85.5294 54.5947 85.2494 54.4076 85.1776C53.831 84.9564 47.141 85.045 46.7387 85.2793ZM63.4807 86.3526C63.053 87.0706 62.703 87.7063 62.703 87.7652C62.703 87.8242 62.1177 88.9316 61.4026 90.2262C60.6873 91.5205 60.161 92.6749 60.2328 92.791C60.5183 93.2533 61.3254 92.9701 62.0823 92.1423L62.8683 91.2823H65.1506C67.0582 91.2823 67.486 91.344 67.7556 91.6586C68.7479 92.8162 68.9861 93.0024 69.4757 93.0024C70.2603 93.0024 70.2676 92.3266 69.4959 91.091C69.2293 90.6639 68.4581 89.2505 67.7819 87.9497C67.1059 86.6489 66.3936 85.4638 66.1992 85.3159C66.0048 85.1682 65.4886 85.0471 65.0521 85.0471C64.3095 85.0471 64.208 85.1314 63.4807 86.3526ZM72.2063 85.3051C71.8446 85.6668 71.8446 92.3827 72.2063 92.7444C72.5748 93.1129 73.3841 93.063 73.5378 92.6622C73.6096 92.4752 73.6683 91.2716 73.6683 89.9873C73.6683 88.7033 73.7563 87.5982 73.8638 87.5317C74.0745 87.4017 74.4924 87.8792 76.0962 90.0822C76.6629 90.8605 77.2682 91.4973 77.4413 91.4973C77.6141 91.4973 78.2149 90.8525 78.7758 90.0645C80.2563 87.9852 80.7863 87.384 81.059 87.4743C81.2131 87.5253 81.3402 88.5249 81.4086 90.2247L81.5161 92.8949H82.2686H83.0211V89.0247V85.1546L82.2927 85.085C81.0183 84.9633 80.6621 85.1993 79.2748 87.0843C78.5075 88.1271 77.7698 88.9172 77.5634 88.9172C77.3576 88.9172 76.6958 88.2112 76.033 87.2843C75.3905 86.386 74.6709 85.5152 74.4337 85.3492C73.9063 84.9796 72.5585 84.9529 72.2063 85.3051ZM85.9714 85.3004C85.6055 85.6663 85.6012 92.3788 85.9667 92.7444C86.1486 92.9262 87.3825 93.0024 90.1449 93.0024C93.9067 93.0024 94.0705 92.9845 94.2047 92.562C94.4924 91.6556 94.0398 91.5124 90.6859 91.4492L87.5362 91.3898L87.467 90.7856C87.3511 89.776 87.7216 89.5623 89.5876 89.5623C91.6113 89.5623 91.9439 89.4535 91.9439 88.7908C91.9439 88.1735 91.6184 88.0783 89.2563 88.0039L87.5362 87.9497V87.3047V86.6597L90.5902 86.5522C93.8181 86.4386 94.4186 86.2555 93.9585 85.5249C93.7547 85.2015 93.2507 85.1473 89.9796 85.0961C87.2481 85.0534 86.163 85.1088 85.9714 85.3004ZM96.2978 85.2924C95.9262 85.6666 95.9166 92.3739 96.287 92.7444C96.6555 93.1129 97.4648 93.063 97.6186 92.6622C97.6904 92.4752 97.7491 91.914 97.7491 91.4152C97.7491 90.9164 97.8652 90.3922 98.0071 90.2503C98.3524 89.905 101.009 89.9134 101.441 90.261C101.624 90.409 102.082 90.988 102.457 91.5478C103.211 92.6704 103.679 93.0024 104.508 93.0024C105.251 93.0024 105.22 92.5152 104.414 91.4973C103.595 90.4625 103.604 90.0761 104.468 89.1843C105.043 88.5915 105.167 88.2941 105.167 87.512C105.167 86.7242 105.046 86.4395 104.464 85.8575L103.762 85.1546L100.164 85.0882C97.4848 85.0389 96.4979 85.091 96.2978 85.2924ZM107.224 85.45C107.091 85.6988 106.994 87.2217 106.994 89.077C106.994 92.5717 107.142 93.1015 108.081 92.969L108.607 92.8949V89.0247V85.1546L108.03 85.088C107.629 85.0415 107.384 85.1518 107.224 85.45ZM114.303 85.2342C112.893 85.6995 111.674 86.6676 111.106 87.7743C110.973 88.0327 110.864 88.6782 110.864 89.209C110.864 89.9673 111.014 90.369 111.563 91.0854C112.66 92.5164 113.599 92.8959 116.025 92.8886C117.831 92.883 118.199 92.8136 119.21 92.2868C120.128 91.808 120.339 91.5986 120.285 91.218C120.193 90.5739 119.485 90.5104 118.468 91.0553C117.877 91.372 117.246 91.4973 116.239 91.4973C114.53 91.4973 113.51 91.0204 112.919 89.9441C112.556 89.284 112.534 89.072 112.754 88.3397C113.264 86.636 115.887 86.0086 118.307 87.0116C119.038 87.3144 119.612 87.4219 119.992 87.3264C120.867 87.1069 120.597 86.5354 119.287 85.8321C118.386 85.3486 117.798 85.2024 116.494 85.1379C115.586 85.0929 114.6 85.1363 114.303 85.2342ZM125.961 85.6384C125.734 85.9637 125.16 86.9553 124.686 87.8422C124.212 88.7291 123.472 90.1036 123.042 90.8968C122.612 91.69 122.26 92.4883 122.26 92.6706C122.26 93.1726 123.275 93.0813 123.713 92.5401C124.747 91.2621 124.692 91.2823 127.172 91.2823C129.157 91.2823 129.556 91.3406 129.859 91.6756C130.055 91.8919 130.215 92.1787 130.215 92.3131C130.215 92.8957 131.852 93.2546 132.058 92.717C132.167 92.4324 128.946 86.1376 128.325 85.4234C128.122 85.1892 127.692 85.0471 127.186 85.0471C126.544 85.0471 126.288 85.1707 125.961 85.6384ZM134.128 85.3051C133.949 85.4844 133.87 86.6227 133.87 89.0415C133.87 92.7839 133.963 93.1103 134.987 92.9652C135.468 92.897 135.486 92.8132 135.59 90.2073C135.673 88.1479 135.765 87.5197 135.988 87.5197C136.148 87.5197 137.214 88.7291 138.359 90.2073L140.439 92.8949L141.663 92.9592C143.191 93.0393 143.151 93.1634 143.069 88.5947L143.008 85.1546L142.444 85.0893C142.117 85.0514 141.72 85.1837 141.5 85.4032C141.169 85.7341 141.137 86.0626 141.245 87.9794C141.336 89.5792 141.298 90.2354 141.106 90.3943C140.74 90.6983 140.621 90.5838 138.825 88.2079C136.487 85.1151 136.412 85.0471 135.321 85.0471C134.807 85.0471 134.27 85.1632 134.128 85.3051ZM103.081 86.8102C103.223 86.9521 103.339 87.3197 103.339 87.6272C103.339 88.5668 102.997 88.7022 100.626 88.7022C99.4179 88.7022 98.2763 88.6435 98.0892 88.5717C97.7448 88.4395 97.5934 86.9946 97.8925 86.6956C98.1565 86.4313 102.805 86.5341 103.081 86.8102ZM65.5348 87.338C65.7511 87.5337 65.9281 87.8121 65.9281 87.9568C65.9281 88.1013 66.0782 88.344 66.2616 88.4963C66.4469 88.6502 66.5662 89.0196 66.5303 89.3288C66.4703 89.8437 66.377 89.8895 65.2637 89.9482C63.6021 90.0359 63.4353 89.777 64.1437 88.2114C64.7391 86.8955 64.9203 86.7818 65.5348 87.338ZM128.11 88.2466C128.453 88.8828 128.684 89.5358 128.621 89.6979C128.543 89.9022 128.11 89.9923 127.205 89.9923C125.572 89.9923 125.427 89.7207 126.21 88.1249C126.924 86.6693 127.27 86.6915 128.11 88.2466ZM164.213 97.5179C163.252 97.7448 161.837 98.757 161.238 99.6459C160.472 100.783 160.404 101.654 160.991 102.837C161.958 104.786 164.245 105.746 167.046 105.378C169.34 105.077 171.281 103.277 171.281 101.452C171.281 98.5592 167.862 96.6562 164.213 97.5179ZM0.494484 97.6609C0.415576 97.7396 0.351074 99.0726 0.351074 100.623C0.351074 103.746 0.442237 104.02 1.74668 104.826C2.69508 105.413 5.13583 105.626 6.83847 105.273C7.84943 105.063 8.20849 104.856 8.93478 104.068L9.81136 103.117V100.559C9.81136 97.8011 9.66839 97.4167 8.69441 97.5547C8.21494 97.6226 8.19709 97.7024 8.14571 99.9901C8.11668 101.291 8.04272 102.571 7.98144 102.835C7.79202 103.651 6.74215 104.02 4.85202 103.934C3.43857 103.87 3.09305 103.778 2.62498 103.338C2.09413 102.839 2.07113 102.718 2.07113 100.426C2.07113 98.8518 1.98297 97.9454 1.81312 97.7755C1.5349 97.4973 0.727981 97.4272 0.494484 97.6609ZM12.2717 97.7944C12.2132 97.9469 12.1921 99.6538 12.2246 101.588C12.2764 104.663 12.331 105.134 12.6602 105.341C12.9339 105.514 13.139 105.514 13.4127 105.341C13.7258 105.145 13.807 104.675 13.8965 102.548C13.9556 101.141 14.0767 100.014 14.1652 100.044C14.2538 100.074 14.4153 100.098 14.5237 100.098C14.632 100.098 15.4409 100.993 16.3211 102.086C18.9403 105.341 19.0906 105.473 20.1641 105.47C20.6784 105.468 21.2147 105.393 21.3555 105.303C21.6855 105.093 21.7976 98.0223 21.4759 97.7007C21.3566 97.5814 20.9812 97.5156 20.6417 97.5545L20.0242 97.625L19.9167 100.403C19.8459 102.231 19.724 103.209 19.56 103.263C19.423 103.308 19.036 102.965 18.7 102.5C17.9464 101.456 15.8655 98.9064 15.1169 98.1088C14.6529 97.6143 14.3835 97.5175 13.4699 97.5175C12.7774 97.5175 12.339 97.6188 12.2717 97.7944ZM24.7421 97.7942C24.6838 97.9462 24.6627 99.7121 24.6952 101.718C24.7539 105.342 24.7573 105.366 25.2499 105.436C26.274 105.581 26.3669 105.254 26.3669 101.512C26.3669 99.0931 26.2882 97.9548 26.1089 97.7755C25.7666 97.4332 24.876 97.4455 24.7421 97.7942ZM27.6569 97.8615C27.6569 98.0507 28.2114 99.1877 28.8891 100.388C29.5668 101.588 30.3677 103.03 30.6687 103.591C31.4933 105.129 31.8584 105.473 32.67 105.473C33.4019 105.473 33.8934 105.074 34.5113 103.98C36.8878 99.7699 37.7622 98.1204 37.7622 97.8469C37.7622 97.444 36.9095 97.4051 36.4346 97.7863C36.2503 97.9342 35.7117 98.7807 35.2378 99.6676C33.7558 102.441 33.1209 103.428 32.7756 103.494C32.5541 103.537 32.2054 103.103 31.7403 102.204C31.3546 101.46 30.6083 100.1 30.0818 99.1838C29.182 97.6179 29.08 97.5175 28.3905 97.5175C27.8614 97.5175 27.6569 97.6134 27.6569 97.8615ZM39.9553 97.7755C39.776 97.9548 39.6973 99.0894 39.6973 101.495C39.6973 103.901 39.776 105.035 39.9553 105.215C40.137 105.396 41.3649 105.473 44.1049 105.473C48.1073 105.473 48.5126 105.392 48.5126 104.593C48.5126 104.041 48.0849 103.968 44.8828 103.968C41.7876 103.968 41.4173 103.864 41.4173 103C41.4173 102.2 41.8334 102.033 43.8179 102.033C45.5018 102.033 45.7276 101.985 45.9398 101.589C46.3765 100.773 45.8774 100.528 43.7824 100.528C41.8089 100.528 41.3034 100.311 41.4537 99.5302C41.5642 98.9568 42.7874 98.7482 45.3513 98.8656C47.1993 98.9501 47.7362 98.9082 47.9847 98.6598C48.2169 98.4274 48.2399 98.2417 48.0746 97.9327C47.868 97.5463 47.5865 97.5175 44.0329 97.5175C41.3487 97.5175 40.1365 97.5943 39.9553 97.7755ZM50.9714 97.7547C50.7736 98.0748 50.765 104.901 50.9619 105.22C51.0477 105.359 51.3567 105.473 51.6482 105.473C52.2765 105.473 52.5906 104.828 52.4433 103.841C52.2836 102.772 52.7789 102.463 54.6486 102.463H56.2388L57.1597 103.699C58.3184 105.255 58.5968 105.483 59.2609 105.418C60.0363 105.342 60.0429 104.739 59.2786 103.811C58.4751 102.837 58.4661 102.679 59.1758 102.016C60.5736 100.711 60.6396 99.3057 59.3562 98.1789L58.6028 97.5175H54.8604C52.3642 97.5175 51.0692 97.5964 50.9714 97.7547ZM63.5757 97.9854C61.735 98.9484 61.3783 100.229 62.6905 101.164C63.1889 101.519 63.8344 101.653 65.7537 101.801C68.6849 102.027 69.3682 102.25 69.3682 102.978C69.3682 103.392 69.2022 103.559 68.5888 103.762C67.4987 104.121 64.4142 103.937 63.701 103.47C63.0122 103.019 62.6142 103.012 62.1807 103.445C61.686 103.94 61.7656 104.245 62.4985 104.662C64.0937 105.57 68.1781 105.69 69.7642 104.876C70.2054 104.649 70.7395 104.126 70.9807 103.683C71.3731 102.963 71.3826 102.844 71.0882 102.323C70.4198 101.14 69.4492 100.821 65.2472 100.406C63.9311 100.276 63.4989 99.8544 64.0835 99.2698C64.5082 98.8452 66.9229 98.8164 68.5544 99.2163C69.552 99.4609 69.8453 99.4661 70.1132 99.2438C71.1601 98.375 69.7918 97.6872 66.7881 97.5721C64.7473 97.4941 64.4389 97.5339 63.5757 97.9854ZM72.9517 97.6609C72.7724 97.84 72.7608 104.669 72.9388 105.133C73.0925 105.533 73.9018 105.583 74.2703 105.215C74.4503 105.035 74.5284 103.872 74.5284 101.368C74.5284 98.2932 74.4795 97.7598 74.1882 97.648C73.7393 97.4758 73.1304 97.482 72.9517 97.6609ZM76.0764 97.7755C75.3725 98.4795 76.1785 99.0813 77.5748 98.8946C78.0869 98.8263 78.7721 98.8729 79.0972 98.9985L79.6885 99.2268V102.01C79.6885 103.54 79.7472 104.946 79.819 105.133C79.9727 105.533 80.782 105.583 81.1506 105.215C81.3253 105.04 81.4086 104.033 81.4086 102.092V99.2268L81.9998 98.9993C82.3279 98.8729 83.0555 98.832 83.6343 98.9073C84.4006 99.0071 84.8138 98.954 85.1907 98.7069C85.8396 98.2819 85.983 98.3754 88.02 100.553L89.5788 102.219V103.588C89.5788 105.057 89.8001 105.473 90.5818 105.473C91.2483 105.473 91.5139 104.873 91.5139 103.367V102.094L93.5631 100.011C94.6902 98.8654 95.5553 97.8357 95.4855 97.7228C95.4158 97.61 95.0537 97.5175 94.6809 97.5175C94.1193 97.5175 93.737 97.7936 92.4474 99.1301C91.5915 100.017 90.7964 100.743 90.6805 100.743C90.5644 100.743 89.7579 100.017 88.8882 99.1301L87.3066 97.5175H81.8205C77.8403 97.5175 76.2637 97.5882 76.0764 97.7755ZM101.343 97.6506C101.258 97.7351 101.189 99.4842 101.189 101.538C101.189 105.585 101.217 105.674 102.377 105.383L102.919 105.247L102.86 101.436L102.802 97.625L102.149 97.5612C101.79 97.5259 101.427 97.5663 101.343 97.6506ZM106.187 97.7661C105.906 98.0471 105.787 104.448 106.05 105.133C106.204 105.534 107.223 105.588 107.596 105.215C107.767 105.044 107.854 104.13 107.854 102.527C107.854 100.648 107.919 100.098 108.14 100.098C108.298 100.098 109.282 101.186 110.327 102.516C111.373 103.847 112.375 105.056 112.555 105.204C112.971 105.547 114.568 105.554 114.907 105.215C115.087 105.035 115.165 103.868 115.165 101.349V97.7407L114.628 97.6059C113.516 97.327 113.445 97.4964 113.445 100.413C113.445 103.581 113.292 103.742 111.961 101.979C108.664 97.6087 108.686 97.6304 107.524 97.5618C106.878 97.5237 106.348 97.6046 106.187 97.7661ZM125.484 97.7061C122.632 98.6385 121.362 100.926 122.479 103.116C123.661 105.433 128.002 106.205 130.815 104.599C131.996 103.924 132.206 103.483 131.521 103.116C131.057 102.868 130.52 103.003 129.924 103.517C129.625 103.774 129.059 103.86 127.666 103.86C126.119 103.86 125.679 103.78 125.038 103.382C123.26 102.276 123.404 100.31 125.336 99.3111C126.33 98.7968 128.624 98.8602 129.69 99.4317C130.562 99.8989 131.014 99.975 131.595 99.7521C132.27 99.4932 131.947 98.8821 130.806 98.2608C129.856 97.743 129.389 97.6366 127.85 97.5878C126.845 97.556 125.78 97.6093 125.484 97.7061ZM137.491 97.7863C137.182 98.0365 136.883 98.55 134.891 102.248C134.477 103.016 133.957 103.955 133.737 104.335C133.43 104.861 133.395 105.084 133.587 105.276C134.002 105.691 134.8 105.31 135.427 104.396L136.016 103.538H138.342C140.845 103.538 140.999 103.593 141.807 104.774C142.159 105.289 142.447 105.473 142.902 105.473C143.242 105.473 143.583 105.372 143.659 105.248C143.735 105.124 143.291 104.133 142.672 103.044C142.053 101.956 141.211 100.436 140.8 99.6676C140.389 98.8989 139.905 98.1006 139.723 97.8938C139.336 97.4511 137.985 97.3861 137.491 97.7863ZM145.419 97.6506C145.233 97.8368 145.212 104.653 145.396 105.133C145.535 105.494 146.266 105.582 146.722 105.292C146.931 105.16 146.982 104.225 146.937 101.372L146.878 97.625L146.225 97.5612C145.866 97.5259 145.504 97.5663 145.419 97.6506ZM149.609 97.7755C149.337 98.0475 149.225 104.466 149.481 105.133C149.67 105.626 150.787 105.572 151.063 105.057C151.186 104.828 151.286 104.21 151.286 103.682C151.286 102.542 151.421 102.463 153.356 102.463C154.883 102.463 154.886 102.465 156.51 104.466C157.149 105.253 157.466 105.473 157.962 105.473C158.804 105.473 158.8 104.929 157.951 103.86C157.17 102.877 157.156 102.678 157.831 102.044C158.607 101.315 159.08 100.188 158.918 99.4515C158.843 99.1073 158.445 98.5313 158.036 98.1716L157.291 97.5175H153.579C150.978 97.5175 149.789 97.5947 149.609 97.7755ZM58.0552 99.2167C58.5439 99.6222 58.5024 100.674 57.987 100.95C57.5443 101.187 53.8881 101.253 53.0885 101.039C52.1808 100.795 52.1754 99.1438 53.0819 98.9477C54.089 98.7297 57.7041 98.9254 58.0552 99.2167ZM156.792 99.341C157.217 99.9228 157.162 100.69 156.675 100.95C156.446 101.072 155.244 101.173 154.003 101.173C151.248 101.173 150.826 100.923 151.203 99.5184C151.365 98.9161 151.781 98.8331 154.373 98.8877C156.177 98.9256 156.538 98.9931 156.792 99.341ZM167.687 99.1023C168.835 99.5917 169.454 100.427 169.454 101.49C169.454 103.072 168.218 103.968 166.035 103.968C164.596 103.968 164.054 103.773 163.159 102.937C162.581 102.398 162.466 102.133 162.466 101.342C162.466 99.7798 163.722 98.8469 165.859 98.8211C166.484 98.8138 167.306 98.9402 167.687 99.1023ZM139.33 100.309C139.638 100.898 139.89 101.525 139.89 101.702C139.89 102.098 139.156 102.3 138.044 102.209C136.993 102.123 136.863 101.665 137.541 100.442C138.008 99.6001 138.328 99.2481 138.632 99.2408C138.708 99.2391 139.022 99.7196 139.33 100.309Z" fill="#131D3B"/>
<path fill-rule="evenodd" clip-rule="evenodd" d="M81.6774 0.495622C71.4781 0.525723 63.1331 0.583132 63.1331 0.623338C63.1331 0.66333 64.0039 1.60226 65.0681 2.70997L67.0032 4.72394V6.61364C67.0032 8.13051 67.0653 8.50333 67.3184 8.50333C67.4917 8.50333 67.9514 8.64309 68.3397 8.81402C69.3167 9.24403 71.8871 10.2234 72.0389 10.2234C72.1072 10.2234 72.1634 9.41603 72.1634 8.42915C72.1634 6.96388 72.2354 6.56956 72.5566 6.27909C72.912 5.95744 74.0429 5.92325 84.339 5.92325C92.9104 5.92325 95.7919 5.98711 95.9861 6.18126C96.1761 6.37132 96.2441 8.28295 96.2441 13.4461V20.4528L97.4804 21.8836C98.1604 22.6705 99.1037 23.8142 99.5767 24.4248L100.437 25.5351L100.492 13.1077C100.523 6.27285 100.474 0.626562 100.385 0.560555C100.295 0.494548 91.8769 0.465306 81.6774 0.495622ZM108.717 7.27586C108.196 8.24661 107.566 9.42248 107.317 9.88905C106.943 10.5904 106.653 10.8134 105.64 11.1776L104.414 11.6183V14.4953V17.3724L105.113 17.2003C105.498 17.1057 106.294 17.021 106.882 17.0122L107.953 16.9961L108.282 18.4313C108.463 19.2206 108.682 19.9382 108.77 20.026C108.858 20.1137 108.929 20.5001 108.929 20.8847C108.929 21.2691 109.068 21.8578 109.237 22.1926C109.618 22.9473 110.22 24.9726 110.22 25.5009C110.22 25.7168 110.316 25.9533 110.435 26.0264C110.553 26.0995 110.649 26.3712 110.648 26.6303C110.647 27.1089 111.191 28.9449 111.536 29.6247C111.639 29.83 111.724 30.1687 111.723 30.3772C111.723 30.5858 111.861 31.1919 112.031 31.724C112.2 32.2562 112.511 33.2721 112.721 33.9816C112.931 34.6911 113.18 35.3637 113.274 35.4759C113.541 35.7954 113.474 37.0225 113.176 37.2669C113.028 37.388 112.327 37.6868 111.617 37.9309C110.908 38.1749 109.359 38.724 108.177 39.1515C106.994 39.5787 105.688 40.0265 105.274 40.1463C104.86 40.2663 104.43 40.452 104.318 40.5593C104.205 40.6666 103.862 40.7543 103.554 40.7543C103.247 40.7543 102.888 40.8614 102.757 40.9923C102.626 41.1233 102.201 41.2957 101.811 41.3753C101.253 41.4894 100.907 41.8061 100.179 42.8711C99.6702 43.6141 99.2542 44.2714 99.2542 44.3318C99.2542 44.3922 98.7726 45.0815 98.1837 45.8635C97.595 46.6455 97.1454 47.3176 97.185 47.357C97.2245 47.3965 97.7786 47.2381 98.4167 47.005C99.0547 46.7719 100.738 46.2282 102.157 45.7967C106.018 44.6225 106.845 44.3658 107.317 44.1951C107.553 44.1097 108.327 43.8743 109.037 43.672C109.747 43.4696 110.908 43.1061 111.617 42.864C112.327 42.6219 113.246 42.3484 113.66 42.2561C114.074 42.1639 115.041 41.8816 115.81 41.6288C117.433 41.0951 118.77 40.6892 120.056 40.34C120.559 40.2037 120.97 40.0384 120.97 39.9726C120.97 39.907 120.775 39.5804 120.538 39.2469C120.301 38.9132 120.051 38.3179 119.983 37.9235C119.915 37.5292 119.779 37.0132 119.681 36.7767C119.582 36.5402 119.335 35.8145 119.131 35.1642C118.928 34.5138 118.685 33.7881 118.591 33.5516C118.497 33.3151 118.361 32.7589 118.288 32.3153C118.215 31.872 118.074 31.509 117.974 31.509C117.874 31.509 117.745 31.1947 117.688 30.8103C117.594 30.1797 117.352 29.4063 116.865 28.1764C116.771 27.9399 116.63 27.4078 116.55 26.9939C116.47 26.58 116.337 26.1446 116.254 26.0264C116.171 25.9081 115.928 25.2308 115.715 24.5213C115.501 23.8118 115.241 23.0634 115.138 22.858C115.034 22.6527 114.95 22.308 114.95 22.0924C114.95 21.8767 114.708 21.0832 114.412 20.3287C114.117 19.5742 113.875 18.8209 113.875 18.6542C113.875 18.4874 113.738 18.0462 113.572 17.6736C113.405 17.301 113.008 16.1253 112.69 15.061C112.371 13.9967 111.832 12.3036 111.493 11.2984C111.154 10.2933 110.633 8.60976 110.336 7.5573C110.039 6.50484 109.767 5.61386 109.73 5.57731C109.694 5.54097 109.238 6.30532 108.717 7.27586ZM56.16 9.40894C55.9316 10.1526 54.94 13.2201 53.9562 16.2259C52.9725 19.2317 52.1677 21.7811 52.1677 21.8911C52.1677 22.0012 52.0314 22.3962 51.8648 22.7688C51.6982 23.1414 51.5143 23.6882 51.4563 23.9838C51.3982 24.2794 51.1475 25.0522 50.8992 25.7008C50.6509 26.3495 50.447 27.0268 50.4464 27.2059C50.4455 27.385 50.3004 27.8086 50.1239 28.1472C49.9471 28.486 49.8027 28.9214 49.8024 29.1147C49.8022 29.517 49.1114 31.4121 48.8809 31.6426C48.7966 31.7268 48.7276 32.0182 48.7276 32.2902C48.7276 32.5619 48.5937 33.1022 48.4301 33.4905C47.9319 34.6726 47.1886 36.9534 47.0792 37.6367C47.0224 37.9915 46.8459 38.572 46.687 38.9268C46.5281 39.2815 46.2512 40.0556 46.0714 40.6468C45.6047 42.1833 45.2602 43.1671 45.0289 43.624C44.7638 44.1476 44.879 44.2295 45.437 43.9149C45.6887 43.773 46.6522 43.226 47.5778 42.6995C49.3023 41.7186 50.3413 41.5271 51.2623 42.0201C51.4825 42.1379 52.2187 42.2568 52.8985 42.2843C54.0325 42.3301 54.1768 42.2824 54.6485 41.7055C54.931 41.3598 55.1658 40.9891 55.1701 40.882C55.1744 40.775 55.4197 40.3703 55.7154 39.9827C56.011 39.595 56.2529 39.1867 56.2529 39.0749C56.2529 38.9633 56.398 38.7515 56.5754 38.6043C57.0456 38.214 56.9736 38.0229 56.3066 37.8919C53.4518 37.3308 53.1361 37.2129 53.0611 36.6808C52.9637 35.9915 53.6324 33.8032 54.3281 32.5333C54.4408 32.328 54.5328 31.9558 54.5328 31.7064C54.5328 31.457 54.6659 30.996 54.8282 30.6821C54.9908 30.3682 55.2946 29.5794 55.5034 28.929C55.7121 28.2786 55.9663 27.6544 56.068 27.5422C56.1697 27.4297 56.2559 27.0911 56.2597 26.7896C56.2634 26.488 56.4085 26.0535 56.5823 25.824C56.7558 25.5944 56.8979 25.1889 56.8979 24.923C56.8979 24.6568 56.9946 24.3794 57.1129 24.3063C57.2311 24.2332 57.3279 23.9559 57.3279 23.6897C57.3279 23.4237 57.47 23.0182 57.6435 22.7886C57.8172 22.5592 57.9654 22.1294 57.9729 21.8337C57.9804 21.5381 58.1286 21.1083 58.3023 20.8789C58.4758 20.6493 58.6179 20.2438 58.6179 19.9778C58.6179 19.7116 58.7147 19.4343 58.8329 19.3612C58.9512 19.2881 59.051 19.0163 59.0548 18.7572C59.0585 18.4981 59.2036 18.0982 59.3773 17.8688C59.5509 17.6392 59.693 17.1393 59.693 16.7577C59.693 15.2651 60.1344 15.0778 61.9757 15.7895C62.553 16.0127 63.6061 16.3638 64.3156 16.5697C65.0251 16.7757 65.8475 17.0395 66.1432 17.1558C66.4388 17.2722 67.8417 17.7432 69.2608 18.2029C70.6798 18.6626 72.0344 19.1373 72.2709 19.258C72.6134 19.4325 73.2257 19.253 75.281 18.3751C76.7 17.769 78.2723 17.1702 78.7748 17.0447C79.7208 16.8082 80.0107 16.4586 79.2609 16.4586C78.8058 16.4586 76.3085 15.554 75.3553 15.0438C75.0414 14.8759 74.6256 14.7385 74.431 14.7385C74.2367 14.7385 73.6712 14.5351 73.1743 14.2868C72.6774 14.0382 71.9806 13.7559 71.6258 13.6592C70.5095 13.3547 68.4184 12.5386 67.9765 12.235C67.7435 12.0746 67.4124 11.9434 67.241 11.9434C66.9144 11.9434 64.3702 11.0041 63.7274 10.6463C63.522 10.5319 63.21 10.4384 63.0344 10.4384C62.8585 10.4384 62.2042 10.206 61.5801 9.92194C60.9561 9.63792 60.252 9.35583 60.0155 9.29498C59.779 9.23435 59.0533 8.97484 58.4029 8.71834C57.7525 8.46183 57.0753 8.20813 56.8979 8.15459C56.6612 8.08299 56.4649 8.41668 56.16 9.40894ZM92.0515 15.9666C91.6967 16.1597 91.0678 16.3904 90.6539 16.4792C89.7242 16.6785 87.2577 17.5048 86.6763 17.8114C86.4398 17.9361 85.9077 18.1068 85.4938 18.1907C84.724 18.3465 83.5673 18.7297 79.3661 20.2201C78.7748 20.4297 77.8557 20.72 77.3235 20.8649L76.356 21.1283L76.296 23.9535C76.2597 25.6632 76.3177 26.7789 76.4431 26.7789C76.557 26.7789 77.2128 26.5514 77.9006 26.2734C79.3433 25.6901 80.2252 25.3781 81.7311 24.918C82.3224 24.7374 83.124 24.4534 83.5123 24.2867C83.9006 24.1201 84.3336 23.9838 84.4744 23.9838C84.6152 23.9838 85.362 23.752 86.1334 23.4689C88.9072 22.4508 91.6344 21.5656 92.3127 21.4631C93.2772 21.3171 93.5208 20.9412 93.3585 19.849C93.2835 19.3442 93.1661 18.1812 93.0977 17.2648C93.0293 16.3485 92.9111 15.6024 92.8349 15.6071C92.7588 15.6119 92.4062 15.7738 92.0515 15.9666ZM68.7157 21.565C68.7106 21.6802 68.7166 36.4525 68.7226 37.7771C68.723 37.8545 69.1827 37.9678 69.7445 38.0289C70.964 38.1616 72.5553 38.4849 73.0771 38.706C73.4315 38.856 73.4534 38.4075 73.4534 30.99V23.1145L72.9696 22.9238C72.7035 22.8191 71.8086 22.52 70.9808 22.2597C70.153 21.9991 69.3837 21.7 69.2715 21.5949C69.0223 21.3616 68.7258 21.3457 68.7157 21.565ZM94.309 23.9819C94.0198 24.1504 91.3478 25.2246 90.38 25.5615C90.0523 25.6757 90.1654 25.9197 91.1863 27.3001C91.8395 28.1833 92.374 28.9608 92.374 29.0274C92.374 29.1373 93.9491 31.526 94.3647 32.0466C94.4591 32.1648 95.2028 33.2291 96.0175 34.4116C96.8319 35.5942 97.7352 36.852 98.0246 37.2067C98.3138 37.5615 98.6186 38.0693 98.7018 38.3355C98.8594 38.8393 99.237 38.9612 99.5874 38.6212C99.6997 38.5122 100.4 38.2196 101.144 37.9711C103.16 37.297 104.199 36.8567 104.199 36.6767C104.199 36.5884 103.861 36.0726 103.447 35.5305C103.033 34.9885 102.693 34.4665 102.692 34.3708C102.691 34.2749 102.353 33.8404 101.94 33.4047C101.527 32.9691 101.189 32.5129 101.189 32.391C101.189 32.2689 100.913 31.8511 100.576 31.4628C100.238 31.0743 99.9241 30.6488 99.8771 30.5172C99.8302 30.3856 99.573 29.9986 99.3058 29.6572C99.0385 29.3158 98.1482 28.0689 97.3271 26.8864C96.5062 25.7039 95.6801 24.5187 95.4918 24.2526C95.1295 23.7415 94.8369 23.6744 94.309 23.9819ZM64.7839 32.6034C64.4672 33.087 64.2081 33.5707 64.2081 33.6785C64.2081 33.786 64.1197 33.8741 64.0116 33.8741C63.9034 33.8741 63.5117 34.3671 63.141 34.9696C62.7704 35.572 62.3745 36.1766 62.2614 36.3134C61.7805 36.8947 57.9983 42.2404 57.7822 42.6438C57.6521 42.887 57.415 43.2166 57.2554 43.3761C57.0957 43.5359 56.7074 44.0514 56.3926 44.5217C55.7977 45.4103 54.1034 47.7805 51.7863 50.9652C51.0445 51.985 50.4894 52.9033 50.553 53.0061C50.7238 53.2823 54.0564 55.5898 54.2845 55.5898C54.3922 55.5898 54.6113 55.7478 54.7715 55.9409C54.9316 56.1337 55.3627 56.4967 55.7293 56.7472C56.5988 57.341 59.5891 59.4225 61.628 60.8529C62.0419 61.1432 63.2513 62.0127 64.3156 62.7852C66.7598 64.5592 70.7712 67.4218 71.4063 67.8452C71.6723 68.0225 72.496 68.6031 73.2367 69.1352C73.9771 69.6673 74.9268 70.3328 75.3467 70.614C75.7669 70.8952 76.3048 71.3063 76.5426 71.5278C76.7802 71.7492 77.0558 71.9303 77.1552 71.9303C77.2545 71.9303 77.9619 72.4162 78.7273 73.01C80.3149 74.2422 80.3631 74.1887 79.7918 71.8228C79.1749 69.2679 79.3785 68.4912 81.4667 65.4354C81.6664 65.143 81.6423 64.9894 81.3489 64.6828C80.9122 64.2268 79.6785 62.6474 78.9926 61.6663C78.4147 60.8396 78.2349 60.8015 77.9872 61.4534C77.8851 61.7222 77.4566 62.3547 77.035 62.8594C76.6 63.3799 76.3205 63.9127 76.3889 64.0909C76.4747 64.3141 76.3558 64.4051 75.9784 64.4051C75.4175 64.4051 75.3046 64.3279 71.1657 61.1178C70.6762 60.7381 69.6119 59.9516 68.8006 59.37C67.3279 58.3143 65.427 56.9155 61.2328 53.8005C60.0101 52.8925 58.9217 52.1497 58.814 52.1497C58.7061 52.1497 58.6179 51.8553 58.6179 51.4954C58.6179 51.0577 58.92 50.444 59.5317 49.6401C60.0342 48.9794 60.5422 48.2821 60.6605 48.0906C60.7788 47.8988 61.1692 47.355 61.5283 46.882C61.8873 46.409 62.3403 45.7696 62.5347 45.4608C62.7293 45.1523 63.0163 44.7653 63.1724 44.6008C63.3285 44.4365 63.9641 43.543 64.5848 42.6154L65.7132 40.9291V36.3265C65.7132 33.7952 65.6336 31.724 65.5364 31.724C65.439 31.724 65.1004 32.1197 64.7839 32.6034ZM93.1637 37.583C92.9631 37.9674 92.6109 38.572 92.3811 38.9268C92.1512 39.2815 91.8049 39.8818 91.6111 40.2607C91.4176 40.6395 91.1231 41.0626 90.9566 41.2007C90.7902 41.3389 90.6539 41.535 90.6539 41.6365C90.6539 41.738 90.1863 42.5245 89.6148 43.3841C88.6028 44.9063 87.1093 47.2626 86.6763 48.0198C86.558 48.2267 86.2437 48.6992 85.9775 49.0697C85.3764 49.9069 85.3762 49.9031 86.0407 50.7227C87.3856 52.3808 88.0906 53.3752 88.3097 53.9235C88.4396 54.2486 88.6262 54.5147 88.7242 54.5147C88.8221 54.5147 89.0414 54.2486 89.2112 53.9235C89.8487 52.7033 90.1452 52.2155 91.2041 50.6446C91.8018 49.7577 92.3596 48.887 92.4434 48.7096C92.5273 48.5322 92.8605 47.9773 93.1837 47.4763C93.5071 46.9753 94.2951 45.7175 94.9349 44.6812C95.5748 43.6449 96.3284 42.5189 96.6096 42.179C97.0444 41.6539 97.0794 41.5043 96.844 41.1839C96.6913 40.9764 96.0048 40.0626 95.3178 39.1534C94.6311 38.2439 94.0162 37.3613 93.951 37.1921C93.7691 36.7178 93.5619 36.8206 93.1637 37.583ZM69.1148 41.477C68.5351 42.0742 66.1756 45.1688 66.1559 45.3578C66.1447 45.4655 66.442 45.5875 66.8166 45.6283C67.1913 45.6694 68.0395 45.8551 68.7017 46.0413C69.364 46.2273 70.3412 46.4615 70.8733 46.5617C71.8368 46.7427 73.1586 47.0594 75.8185 47.7461C76.5871 47.9446 77.603 48.177 78.076 48.2628C78.549 48.3484 79.3231 48.5406 79.7961 48.6896C82.0494 49.4002 81.9167 49.3905 82.316 48.8719C82.5213 48.6053 82.6914 48.3051 82.6939 48.2052C82.6965 48.1052 82.9163 47.7186 83.1824 47.3462C83.9627 46.2535 84.4536 45.2404 84.3426 44.9515C84.2861 44.8035 83.772 44.6257 83.2003 44.5563C82.6288 44.4868 81.629 44.2695 80.9786 44.0732C80.3282 43.8769 79.3607 43.6361 78.8286 43.5384C77.6116 43.3148 74.5129 42.5359 73.2384 42.1329C72.7062 41.9648 72.0649 41.8276 71.8133 41.8283C71.5618 41.8289 71.0086 41.6842 70.5839 41.5068C69.6351 41.1104 69.4738 41.1071 69.1148 41.477ZM110.346 47.0347C109.726 47.3819 106.491 48.4858 106.081 48.4903C105.561 48.4963 105.61 48.7607 106.242 49.3546C106.538 49.6324 106.779 49.971 106.779 50.1071C106.779 50.2432 107.021 50.5818 107.317 50.8596C108.023 51.5225 108.067 52.6982 107.395 52.9114C107.143 52.9916 106.521 53.361 106.014 53.7323C105.506 54.1034 104.739 54.6491 104.309 54.9448C103.878 55.2404 103.068 55.8209 102.509 56.2348C101.949 56.6487 101.339 57.0841 101.153 57.2023C100.845 57.3978 99.0194 58.6996 97.5341 59.7824C96.3245 60.6644 94.2447 62.1582 93.7926 62.47C93.5352 62.6474 92.9859 63.0548 92.5714 63.3754C91.6892 64.0578 90.9334 63.9843 90.7358 63.1969C90.6651 62.9153 90.5256 62.685 90.4258 62.685C90.3258 62.685 90.0792 62.3375 89.8775 61.9127C89.6761 61.4881 89.3813 61.0907 89.2224 61.0297C89.0637 60.9688 88.9339 60.7476 88.9339 60.5382C88.9339 60.329 88.7728 60.0247 88.5757 59.8624C88.3787 59.7003 87.9049 59.0793 87.5226 58.4831C87.1403 57.8867 86.6724 57.2701 86.483 57.1129C86.2938 56.9557 86.1388 56.7171 86.1388 56.5825C86.1388 56.4481 85.9212 56.0961 85.655 55.8007C85.3888 55.5053 84.8326 54.7566 84.4187 54.137C84.0048 53.5175 83.5211 53.0112 83.3437 53.0119C83.1663 53.0127 82.3439 52.8596 81.5161 52.6719C80.6884 52.4842 79.3338 52.1789 78.5061 51.9936C77.6783 51.808 76.8316 51.5704 76.6247 51.4655C76.1595 51.2292 76.1214 51.5614 76.571 51.9347C76.7484 52.0819 76.8935 52.2914 76.8935 52.4004C76.8935 52.5094 77.1354 52.8594 77.431 53.178C77.7266 53.4969 77.9685 53.8267 77.9685 53.911C77.9685 54.051 80.3149 57.4029 81.4615 58.9013C81.7243 59.2445 82.0375 59.7001 82.1577 59.9136C82.6436 60.777 84.8799 63.9484 85.1764 64.1943C85.351 64.339 85.4938 64.551 85.4938 64.665C85.4938 64.9105 86.6058 66.5325 87.5901 67.7226C87.9743 68.1872 88.2888 68.6738 88.2888 68.8036C88.2888 68.9335 88.4583 69.1943 88.6651 69.3835C88.8719 69.5727 89.3316 70.2212 89.6864 70.8247C90.3804 72.0055 90.6847 72.1556 91.1254 71.5345C91.28 71.3169 91.7935 70.88 92.2665 70.5637C92.7395 70.2474 93.707 69.5572 94.4165 69.0301C95.1261 68.5031 95.8517 68.0045 96.0291 67.9223C96.2065 67.8402 96.8003 67.4022 97.349 66.949C97.8975 66.4958 98.4004 66.1251 98.4664 66.1251C98.621 66.1251 102.14 63.5648 103.124 62.7357C103.538 62.3872 104.097 61.9869 104.365 61.846C104.634 61.705 105.662 60.9897 106.651 60.2561C107.639 59.5225 109.001 58.5354 109.676 58.0624C110.352 57.5893 111.104 57.0329 111.348 56.8261C111.591 56.6192 111.872 56.4498 111.972 56.4498C112.072 56.4498 112.516 56.1243 112.96 55.7265C113.404 55.3288 114.057 54.8409 114.412 54.6425C115.227 54.1864 116.425 53.3247 117.02 52.7676C117.272 52.5315 117.799 52.1662 118.191 51.956C119.396 51.3096 119.183 51.1439 116.946 50.9884C113.822 50.7713 113.446 50.6767 113.206 50.0463C113.093 49.7465 112.705 49.1662 112.345 48.7566C111.986 48.3468 111.589 47.787 111.464 47.5124C111.183 46.8968 110.848 46.7537 110.346 47.0347Z" fill="#B37028"/>
</svg>
