<svg width="49" height="48" fill="none" xmlns="http://www.w3.org/2000/svg"><g clip-path="url(#a)" fill="#131D3B"><path d="M22.496 14.707a6.645 6.645 0 1 0-5.022 7.941c.005 0 .01-.003.015-.004a6.598 6.598 0 0 0 5.007-7.937Zm-6.514 6.244a4.774 4.774 0 0 1-1.052-9.437 4.85 4.85 0 0 1 1.061-.12 4.774 4.774 0 0 1 1.052 9.399c-.336.077-.68.117-1.024.12l-.037.038Z"/><path d="M46.534 6.052a.93.93 0 0 0-.791.381L42.7 10.556a2.195 2.195 0 0 1-3.006.456 2.158 2.158 0 0 1-.456-3.015l2.866-3.89a.93.93 0 0 0-.605-1.499 8.17 8.17 0 0 0-9.222 9.744l-1.098 1.098-.69-3.034a.93.93 0 0 0-1.115-.698l-2.653.605a12.032 12.032 0 0 0-1.666-2.345l1.452-2.299a.931.931 0 0 0-.289-1.284l-4.001-2.522a.93.93 0 0 0-1.284.289L19.48 4.469a12.062 12.062 0 0 0-2.792-.493l-.596-2.652a.93.93 0 0 0-1.115-.698h-.001l-4.654 1.052a.93.93 0 0 0-.727 1.096l.002.011.623 2.615a12.02 12.02 0 0 0-2.345 1.666L5.577 5.614a.931.931 0 0 0-1.284.289L1.771 9.904a.93.93 0 0 0 .289 1.284l2.298 1.452a12.106 12.106 0 0 0-.493 2.792l-2.643.67a.93.93 0 0 0-.698 1.116v.001l1.042 4.653c.116.5.616.813 1.116.698h.001l2.652-.596c.46.846 1.02 1.633 1.666 2.346L5.55 26.618a.93.93 0 0 0 .325 1.247l4.002 2.522c.148.092.319.14.493.14h.158a.928.928 0 0 0 .577-.41l1.452-2.298c.908.273 1.845.439 2.792.493l.177.782-2.16 2.159a8.18 8.18 0 0 0-8.683 12.182.93.93 0 0 0 1.546.074l3.192-4.327a2.196 2.196 0 0 1 3.015-.456 2.15 2.15 0 0 1 .503 2.968l-3.043 4.132a.93.93 0 0 0 .632 1.452 8.37 8.37 0 0 0 1.285.102 8.116 8.116 0 0 0 5.779-2.391 8.209 8.209 0 0 0 2.224-7.445l18.817-18.808a8.18 8.18 0 0 0 8.654-12.238.928.928 0 0 0-.753-.446ZM12.492 25.809a.932.932 0 0 0-1.108.38l-1.34 2.132-2.428-1.517 1.34-2.13a.93.93 0 0 0-.14-1.164 10.239 10.239 0 0 1-2.14-3.015.93.93 0 0 0-1.052-.521l-2.448.558-.633-2.792 2.448-.558a.93.93 0 0 0 .726-.931 10.242 10.242 0 0 1 .633-3.648.932.932 0 0 0-.382-1.107l-2.122-1.35 1.527-2.429 2.13 1.34a.93.93 0 0 0 1.164-.13 10.231 10.231 0 0 1 3.015-2.14.93.93 0 0 0 .512-1.052l-.559-2.447 2.793-.633.558 2.447a.93.93 0 0 0 .93.726 10.4 10.4 0 0 1 3.649.633.931.931 0 0 0 1.107-.382l1.34-2.13 2.429 1.526-1.34 2.13a.931.931 0 0 0 .14 1.164 10.256 10.256 0 0 1 2.177 3.024.93.93 0 0 0 1.052.512l2.447-.558.744 3.276-12.525 12.489-.093-.345a.93.93 0 0 0-.931-.726 10.264 10.264 0 0 1-3.62-.632ZM44.756 15.19a6.273 6.273 0 0 1-4.467 1.862 6.347 6.347 0 0 1-1.703-.233.928.928 0 0 0-.93.242L18.113 36.603a.928.928 0 0 0-.242.931 6.349 6.349 0 0 1-1.62 6.17 6.263 6.263 0 0 1-3.796 1.815l1.991-2.699a4.01 4.01 0 0 0-3.23-6.393 4.038 4.038 0 0 0-3.229 1.628L5.745 41.1a6.319 6.319 0 0 1 7.733-7.948c.331.099.69.006.93-.242l19.544-19.59a.93.93 0 0 0 .242-.93 6.336 6.336 0 0 1 1.619-6.17 6.262 6.262 0 0 1 3.722-1.805L37.74 6.889a4.013 4.013 0 0 0 6.459 4.765L46.3 8.797a6.299 6.299 0 0 1-1.545 6.393Z"/></g><defs><clipPath id="a"><path fill="#fff" transform="translate(.5)" d="M0 0h48v48H0z"/></clipPath></defs></svg>