<svg width="49" height="48" fill="none" xmlns="http://www.w3.org/2000/svg"><g clip-path="url(#a)"><path d="m45.247 22.756-1.909-.821V20.63a18.791 18.791 0 0 0-12.59-17.801V.989A.99.99 0 0 0 29.76 0H19.178a.99.99 0 0 0-.989.99v1.848A18.791 18.791 0 0 0 5.6 20.64v1.315l-1.888.8a.988.988 0 0 0-.604.91v5.193a.99.99 0 0 0 .99.989h1.285v1.978a.99.99 0 0 0 .989.989h3.55a14.963 14.963 0 0 0 1.474 3.54l-2.512 2.512a.988.988 0 0 0 0 1.395l4.203 4.203a.988.988 0 0 0 1.394 0l2.512-2.512a14.939 14.939 0 0 0 3.531 1.473v3.55a.99.99 0 0 0 .99.99h5.933a.99.99 0 0 0 .989-.99v-3.55a14.923 14.923 0 0 0 3.54-1.473l2.512 2.512a.988.988 0 0 0 1.395 0l4.203-4.203a.988.988 0 0 0 0-1.395l-2.512-2.512a14.963 14.963 0 0 0 1.473-3.54h3.55a.99.99 0 0 0 .99-.989v-1.978h1.285a.99.99 0 0 0 .99-.989v-5.192a.99.99 0 0 0-.614-.91Zm-25.1-20.768h8.624v16.525h-8.604l-.02-16.525Zm21.47 28.848h-3.293a.989.989 0 0 0-.989.78 13 13 0 0 1-1.81 4.352.988.988 0 0 0 .129 1.236l2.364 2.364-2.829 2.809-2.364-2.364a.989.989 0 0 0-1.236-.128 13.007 13.007 0 0 1-4.351 1.81.99.99 0 0 0-.781.989v3.332H22.5v-3.362a.989.989 0 0 0-.781-.989 12.964 12.964 0 0 1-4.352-1.81.99.99 0 0 0-1.236.129l-2.364 2.363-2.798-2.799 2.363-2.363a.989.989 0 0 0 .129-1.236 13.013 13.013 0 0 1-1.84-4.332.99.99 0 0 0-.989-.781H7.34v-.99h9.04a8.148 8.148 0 0 0 9.071 7.109 8.148 8.148 0 0 0 7.108-7.108h9.049l.01.989Zm-23.22-.99H30.57a6.171 6.171 0 0 1-12.184 0h.01Zm25.495-1.977H5.076v-3.55l1.908-.821a.987.987 0 0 0 .603-.91V20.61A16.811 16.811 0 0 1 18.19 4.935v14.567a.99.99 0 0 0 .989.99H29.78a.99.99 0 0 0 .99-.99V4.935A16.812 16.812 0 0 1 41.38 20.63v1.978c0 .396.237.755.603.91l1.909.82v3.53Z" fill="#131D3B"/></g><defs><clipPath id="a"><path fill="#fff" transform="translate(.5)" d="M0 0h48v48H0z"/></clipPath></defs></svg>