<svg width="48" height="48" fill="none" xmlns="http://www.w3.org/2000/svg"><g clip-path="url(#a)" fill="#131D3B"><path d="M47.003 31.515H13.388v-15.98a.963.963 0 0 0-.963-.963H.963a.964.964 0 0 0-.963.964v28.356c0 .531.432.963.963.963h46.04a.964.964 0 0 0 .963-.963V32.478a.964.964 0 0 0-.963-.963ZM1.926 16.499h9.536v15.584L1.926 41.57V16.5ZM46.04 42.93H3.294l9.487-9.488h1.32v2.389a.964.964 0 0 0 1.926 0V33.44h1.927v2.389a.963.963 0 0 0 1.926 0V33.44h1.926v4.43a.963.963 0 0 0 1.927 0v-4.43h1.926v2.389a.964.964 0 0 0 1.927 0V33.44h1.926v2.389a.964.964 0 0 0 1.926 0V33.44h1.927v4.43a.964.964 0 0 0 1.926 0v-4.43h1.926v2.389a.964.964 0 0 0 1.927 0V33.44h1.926v2.389a.964.964 0 0 0 1.926 0V33.44h3.179l-.135 9.487Z"/><path d="M24.34 30.658a.962.962 0 0 0 .568-.193l9.284-6.81s.058-.077.097-.115c.038-.039.077-.048.106-.097l9.814-13.34a3.42 3.42 0 0 0 .588-3.62 4.213 4.213 0 0 0-1.387-1.6l-1.127-.809a4.04 4.04 0 0 0-2.33-.867 3.544 3.544 0 0 0-2.89 1.666l-9.776 13.379a.961.961 0 0 0-.077.173s0 .058-.058.087l-3.718 10.874a.962.962 0 0 0 .915 1.272h-.01ZM38.642 6.01c.276-.49.769-.82 1.328-.886.44.04.858.215 1.195.5l1.098.81c.325.214.594.504.78.848.077.173.328.703-.385 1.675l-.636.867-2.003-1.473-2.013-1.464.636-.877ZM36.86 8.437l1.233.906-5.78 7.84a.962.962 0 1 0 1.551 1.136l5.779-7.84 1.224.905-7.446 10.152-4.007-2.947L36.86 8.437Zm-8.313 11.915 3.449 2.533-2.139 1.57-2.167-1.59.857-2.513Zm-1.512 4.42 1.194.877-1.984 1.455.79-2.331Z"/></g><defs><clipPath id="a"><path fill="#fff" d="M0 0h48v48H0z"/></clipPath></defs></svg>